<?xml version="1.0" standalone="no"?>
<!DOCTYPE svg PUBLIC "-//W3C//DTD SVG 1.1//EN" "http://www.w3.org/Graphics/SVG/1.1/DTD/svg11.dtd" >
<svg xmlns="http://www.w3.org/2000/svg">
<metadata>
<json>
<![CDATA[
{
	"fontFamily": "woutick-icons",
	"description": "Font generated by IcoMoon.",
	"majorVersion": 1,
	"minorVersion": 0,
	"version": "Version 1.0",
	"fontId": "woutick-icons",
	"psName": "woutick-icons",
	"subFamily": "Regular",
	"fullName": "woutick-icons"
}
]]>
</json>
</metadata>
<defs>
<font id="woutick-icons" horiz-adv-x="1024">
<font-face units-per-em="1024" ascent="960" descent="-64" />
<missing-glyph horiz-adv-x="1024" />
<glyph unicode="&#x20;" horiz-adv-x="512" d="" />
<glyph unicode="&#xe900;" glyph-name="w_icons_account" data-tags="w_icons_account" d="M512 378.027c32 0 113.92 50.773 113.92 113.92 0 3.84 0 7.68 0 11.52 0.427 35.413 0.853 71.68-23.893 96.853-18.347 18.347-47.787 27.307-90.027 27.307s-71.68-8.96-90.027-27.307c-24.747-24.747-24.32-61.44-24.32-96.853 0-3.84 0-7.68 0-11.52 0.427-63.573 82.347-113.92 114.347-113.92zM658.773 314.027c0 0 0 0 0 0-4.693 1.28-108.8 27.307-146.773 27.307s-142.507-26.027-146.773-27.307c-22.613-5.973-49.493-22.187-54.187-40.107l-20.907-76.8-9.813-36.267c63.573-51.627 144.213-82.773 232.533-82.773 87.467 0 167.68 30.72 230.827 81.493l-30.293 114.347c-5.12 17.92-32 33.707-54.613 40.107zM512 832c-211.627 0-384-172.373-384-384 0-36.267 5.12-72.107 14.933-106.24 3.84-14.080 16.64-23.040 30.72-23.040 2.987 0 5.973 0.427 8.96 1.28 17.067 4.693 26.88 22.613 21.76 39.68-8.107 28.16-12.373 58.027-12.373 88.32 0 176.64 143.36 320 320 320s320-143.36 320-320c0-29.44-3.84-58.88-11.947-86.613-4.693-17.067 5.12-34.56 22.187-39.68 17.067-4.693 34.56 5.12 39.68 22.187 9.387 33.707 14.080 68.693 14.080 104.107 0 211.627-172.373 384-384 384z" />
<glyph unicode="&#xe901;" glyph-name="w_icons_add" data-tags="w_icons_add" d="M682.667 405.333h-128v-128h-85.333v128h-128v85.333h128v128h85.333v-128h128v-85.333z" />
<glyph unicode="&#xe902;" glyph-name="w_icons_add_circle" data-tags="w_icons_add_circle" d="M512 832c-212.053 0-384-171.947-384-384s171.947-384 384-384 384 171.947 384 384-171.947 384-384 384zM682.667 405.333h-128v-128h-85.333v128h-128v85.333h128v128h85.333v-128h128v-85.333z" />
<glyph unicode="&#xe903;" glyph-name="w_icons_add_one" data-tags="w_icons_add_one" d="M725.333 362.667v128h-128v-128h-128v-128h128v-128h128v128h128v128zM256 234.667v426.667c0 23.467 19.2 42.667 42.667 42.667h426.667c23.467 0 42.667-19.2 42.667-42.667v-85.333h85.333v85.333c0 70.827-57.173 128-128 128h-426.667c-42.24 0-79.36-20.907-102.827-52.48-15.787-21.333-25.173-47.36-25.173-75.52v-426.667c0-70.827 57.173-128 128-128h85.333v85.333h-85.333c-23.467 0-42.667 19.2-42.667 42.667z" />
<glyph unicode="&#xe904;" glyph-name="w_icons_adjust" data-tags="w_icons_adjust" d="M384 362.667c-55.467 0-102.4-35.84-120.32-85.333h-93.013v-85.333h93.013c17.92-49.493 64.853-85.333 120.32-85.333 70.827 0 128 57.173 128 128s-57.173 128-128 128zM384 149.333c-46.933 0-85.333 38.4-85.333 85.333s38.4 85.333 85.333 85.333 85.333-38.4 85.333-85.333-38.4-85.333-85.333-85.333zM221.013 618.667c17.92-49.493 64.853-85.333 120.32-85.333 70.827 0 128 57.173 128 128s-57.173 128-128 128c-55.467 0-102.4-35.84-120.32-85.333h-50.347v-85.333h50.347zM341.333 746.667c46.933 0 85.333-38.4 85.333-85.333s-38.4-85.333-85.333-85.333-85.333 38.4-85.333 85.333c0 46.933 38.4 85.333 85.333 85.333zM554.667 277.333h298.667v-85.333h-298.667v85.333zM768 448c0 70.827-57.173 128-128 128-55.467 0-102.4-35.84-120.32-85.333h-349.013v-85.333h349.013c17.493-49.493 64.427-85.333 120.32-85.333 70.827 0 128 57.173 128 128zM554.667 448c0 46.933 38.4 85.333 85.333 85.333s85.333-38.4 85.333-85.333c0-46.933-38.4-85.333-85.333-85.333s-85.333 38.4-85.333 85.333zM810.667 490.667h42.667v-85.333h-42.667v85.333zM512 704h341.333v-85.333h-341.333v85.333z" />
<glyph unicode="&#xe905;" glyph-name="w_icons_arrow_drag_bottomL" data-tags="w_icons_arrow_drag_bottomL" d="M128 320v-256h256z" />
<glyph unicode="&#xe906;" glyph-name="w_icons_arrow_drag_bottomR" data-tags="w_icons_arrow_drag_bottomR" d="M640 64h256v256z" />
<glyph unicode="&#xe907;" glyph-name="w_icons_arrow_drag_topL" data-tags="w_icons_arrow_drag_topL" d="M384 832h-256v-256z" />
<glyph unicode="&#xe908;" glyph-name="w_icons_arrow_drag_topR" data-tags="w_icons_arrow_drag_topR" d="M896 576v256h-256z" />
<glyph unicode="&#xe909;" glyph-name="w_icons_arrow_function_down" data-tags="w_icons_arrow_function_down" d="M512 305.92l213.333 227.413h-426.667z" />
<glyph unicode="&#xe90a;" glyph-name="w_icons_arrow_function_left" data-tags="w_icons_arrow_function_left" d="M369.92 448l227.413-213.333v426.667z" />
<glyph unicode="&#xe90b;" glyph-name="w_icons_arrow_function_right" data-tags="w_icons_arrow_function_right" d="M654.080 448l-227.413 213.333v-426.667z" />
<glyph unicode="&#xe90c;" glyph-name="w_icons_arrow_function_up" data-tags="w_icons_arrow_function_up" d="M512 590.080l-213.333-227.413h426.667z" />
<glyph unicode="&#xe90d;" glyph-name="w_icons_arrow_nav_down" data-tags="w_icons_arrow_nav_down" d="M512 197.547l-257.707 257.707c-16.64 16.64-16.64 43.52 0 60.16s43.52 16.64 60.16 0l197.547-197.547 197.547 197.547c16.64 16.64 43.52 16.64 60.16 0s16.64-43.52 0-60.16l-257.707-257.707z" />
<glyph unicode="&#xe90e;" glyph-name="w_icons_arrow_nav_left" data-tags="w_icons_arrow_nav_left" d="M261.547 448l257.707 257.707c16.64 16.64 43.52 16.64 60.16 0s16.64-43.52 0-60.16l-197.547-197.547 197.547-197.547c16.64-16.64 16.64-43.52 0-60.16s-43.52-16.64-60.16 0l-257.707 257.707z" />
<glyph unicode="&#xe90f;" glyph-name="w_icons_arrow_nav_right" data-tags="w_icons_arrow_nav_right" d="M762.453 448l-257.707-257.707c-16.64-16.64-43.52-16.64-60.16 0s-16.64 43.52 0 60.16l197.547 197.547-197.547 197.547c-16.64 16.64-16.64 43.52 0 60.16s43.52 16.64 60.16 0l257.707-257.707z" />
<glyph unicode="&#xe910;" glyph-name="w_icons_arrow_nav_up" data-tags="w_icons_arrow_nav_up" d="M512 698.453l257.707-257.707c16.64-16.64 16.64-43.52 0-60.16s-43.52-16.64-60.16 0l-197.547 197.547-197.547-197.547c-16.64-16.64-43.52-16.64-60.16 0s-16.64 43.52 0 60.16l257.707 257.707z" />
<glyph unicode="&#xe911;" glyph-name="w_icons_at" data-tags="w_icons_at" d="M735.147 757.333c50.773-21.333 90.453-53.333 118.613-95.573 28.16-42.667 42.24-94.72 42.24-156.16 0-40.107-9.813-77.227-29.013-111.36-19.627-34.133-45.227-61.44-77.653-81.067-32.427-20.053-66.56-29.867-102.4-29.867-30.72 0-56.32 6.4-77.227 18.773s-34.987 31.147-41.813 56.32c-12.8-24.32-28.587-42.667-47.787-55.893-19.2-12.8-42.667-19.2-70.827-19.2-24.32 0-45.653 5.973-64.427 17.493s-33.28 27.733-43.52 49.067c-10.24 20.907-15.36 45.653-15.36 73.387 0 9.813 0.427 20.053 1.707 29.867 3.84 33.28 15.36 63.147 34.133 89.6s42.667 46.507 72.533 61.013 62.293 21.76 98.56 21.76c43.093 0 78.507-10.24 106.24-31.147 27.307-20.48 40.96-51.2 40.96-91.733 0-4.267-0.427-11.52-1.28-20.907l-4.693-40.533c-0.427-3.413-0.427-8.533-0.427-14.507 0-10.24 1.707-17.493 5.547-21.76 3.413-4.267 9.387-6.4 17.92-6.4 10.667 0 20.907 3.84 31.147 11.093 9.813 7.253 18.347 18.773 24.747 34.133s9.813 34.56 9.813 57.6c0 36.693-8.533 68.267-26.027 95.573-17.067 27.307-43.093 48.213-76.8 63.147-34.133 14.933-75.093 22.187-123.307 22.187-59.733 0-110.507-11.52-152.747-34.133-43.093-23.467-74.667-54.187-96-93.867-21.333-39.253-32.427-83.627-32.427-132.267 0-61.013 19.627-109.227 58.88-145.92 39.253-36.267 99.84-53.76 181.76-52.907l-25.173-106.667c-74.667 0.853-137.813 13.653-189.013 39.253-51.2 25.173-89.6 60.587-115.2 105.813s-38.827 98.987-38.827 160.427c0 78.080 20.053 144.64 59.733 199.68s92.16 96.853 157.867 125.013c65.28 28.587 135.68 42.667 211.2 42.667 67.84 0 127.147-10.667 178.347-32zM551.253 466.773c0 16.213-4.267 27.733-13.227 34.133s-18.773 9.813-29.867 9.813c-12.8 0-24.32-4.267-34.987-12.373-10.667-8.533-17.067-23.040-19.627-43.947-0.427-2.56-0.427-6.827-0.427-11.947 0-16.64 4.267-28.16 13.227-34.56 8.533-6.4 18.773-9.387 30.293-9.387 12.373 0 23.893 4.267 34.56 12.373 10.667 8.533 17.067 23.040 19.627 43.947 0.427 2.56 0.427 6.827 0.427 11.947z" />
<glyph unicode="&#xe912;" d="M896 448c0-212.077-171.923-384-384-384s-384 171.923-384 384c0 212.077 171.923 384 384 384s384-171.923 384-384z" />
<glyph unicode="&#xe913;" d="M660.907 677.12c34.987-17.92 61.44-43.52 79.787-76.373 18.347-33.28 27.307-72.107 27.307-116.48 0-31.573-5.547-60.16-16.64-85.76s-25.6-46.080-44.373-60.587c-18.347-14.933-38.4-22.187-59.733-22.187-19.627 0-35.413 5.12-46.507 15.36s-16.213 26.88-14.933 49.92c-23.893-43.52-58.88-65.28-104.533-65.28-20.053 0-37.973 4.693-53.76 14.507s-28.16 23.467-36.693 40.96-13.227 37.973-13.227 61.44c0 30.293 6.4 57.173 18.773 81.493 12.8 24.32 29.867 43.093 51.627 56.747s46.080 20.907 72.96 20.907c23.467 0 43.947-4.693 61.44-14.080 17.067-9.387 30.293-22.187 39.253-38.827s13.227-35.413 13.227-56.32c0-5.12-0.853-12.8-2.133-23.467l-10.667-64.853c-0.427-6.4-0.853-10.667-0.853-12.8 0-10.24 2.56-17.067 7.253-21.333s11.947-5.973 20.907-5.973c12.8 0 24.747 5.12 35.84 15.36s20.053 25.173 26.88 44.373c6.827 19.627 9.813 42.24 9.813 68.693 0 37.12-7.253 69.12-22.187 96.853s-36.693 49.067-65.707 64.427c-29.013 15.36-64.427 23.040-105.813 23.040-47.787 0-88.747-10.24-123.307-30.72-33.707-20.48-60.16-48.64-78.080-84.053s-26.88-75.093-26.88-119.467c0-64.853 18.347-114.347 54.613-148.053 36.693-33.707 88.32-51.2 155.307-51.627l-8.107-36.267c-77.653 1.28-138.24 22.187-180.907 62.293-43.52 40.107-64.853 98.133-64.853 173.653 0 51.2 11.52 97.28 34.987 138.667s56.32 73.813 98.56 97.28 90.453 35.413 145.067 35.413c49.067 0 91.307-8.96 126.293-26.88zM543.147 368.64c14.507 9.387 26.453 23.467 34.987 41.387s13.227 38.827 13.227 63.147c0 24.747-6.827 43.947-20.053 58.027s-32 21.333-56.32 21.333c-17.92 0-34.133-4.693-48.213-14.080-14.507-9.387-25.6-22.613-33.707-39.68s-12.373-37.12-12.373-59.733c0-25.173 6.827-45.227 20.48-60.587s31.573-23.467 54.187-23.467c17.493-0.427 33.28 4.267 47.787 13.653z" />
<glyph unicode="&#xe914;" glyph-name="w_icons_ban" data-tags="w_icons_ban" d="M512 789.333c-188.587 0-341.333-152.747-341.333-341.333s152.747-341.333 341.333-341.333 341.333 152.747 341.333 341.333c0 188.587-152.747 341.333-341.333 341.333zM512 704c55.040 0 106.24-17.92 148.053-47.36l-356.693-356.693c-29.44 41.813-47.36 93.013-47.36 148.053 0 141.227 114.773 256 256 256zM512 192c-55.040 0-106.24 17.92-148.053 47.36l356.693 356.693c29.44-41.813 47.36-93.013 47.36-148.053 0-141.227-114.773-256-256-256z" />
<glyph unicode="&#xe915;" glyph-name="w_icons_basket" data-tags="w_icons_basket" d="M894.72 608.427c3.413 12.8 0.427 26.453-7.68 36.693s-20.48 16.213-33.707 16.213h-532.907l-21.76 128c0 23.467-19.2 42.667-42.667 42.667 0 0 0 0 0 0v0h-85.333c-23.467 0-42.667-19.2-42.667-42.667s19.2-42.667 42.667-42.667h49.067l78.507-471.467c-48.213-9.813-84.907-52.907-84.907-104.533 0-58.88 47.787-106.667 106.667-106.667s106.667 47.787 106.667 106.667c0 24.32-8.107 46.080-21.76 64h256.853c-13.653-17.92-21.76-39.68-21.76-64 0-58.88 47.787-106.667 106.667-106.667s106.667 47.787 106.667 106.667c0 37.12-18.773 69.547-47.36 88.747 1.28 2.56 2.56 5.12 3.413 7.68l85.333 341.333zM320 106.667c-35.413 0-64 28.587-64 64s28.587 64 64 64 64-28.587 64-64-28.587-64-64-64zM377.6 320l-42.667 256h463.787l-64-256h-357.12zM810.667 170.667c0-35.413-28.587-64-64-64s-64 28.587-64 64 28.587 64 64 64 64-28.587 64-64z" />
<glyph unicode="&#xe916;" glyph-name="w_icons_bell" data-tags="w_icons_bell" d="M810.667 320l-42.667 85.333c0 0 0 117.76 0 128 0 94.72-74.24 174.933-177.067 203.093-12.8 30.72-43.093 52.907-78.933 52.907s-66.133-22.187-78.933-52.907c-102.827-28.16-177.067-108.373-177.067-203.093 0-10.24 0-128 0-128l-42.667-85.333c0 0 0-54.613 0-85.333h597.333c0 30.72 0 85.333 0 85.333zM512 106.667c55.467 0 102.4 35.84 120.32 85.333h-240.64c17.92-49.493 64.853-85.333 120.32-85.333z" />
<glyph unicode="&#xe917;" glyph-name="w_icons_bell_cancel" data-tags="w_icons_bell_cancel" d="M862.293 737.707l-60.16 60.16-112.213-112.213c-27.733 22.613-61.013 40.107-98.56 50.347-13.227 31.147-43.52 53.333-79.36 53.333s-66.133-22.187-78.933-52.907c-102.827-28.16-177.067-108.373-177.067-203.093 0-10.24 0-128 0-128l-42.667-85.333c0 0 0-54.613 0-85.333h25.173l-76.373-76.373 60.16-60.16 640 639.573zM768 405.333c0 0-2.133 104.96-1.707 108.373l-279.467-279.040h323.84c0 30.72 0 85.333 0 85.333l-42.667 85.333zM410.027 157.867c23.467-31.147 60.16-51.2 101.973-51.2 55.467 0 102.4 35.84 120.32 85.333h-187.733l-34.56-34.133z" />
<glyph unicode="&#xe918;" glyph-name="w_icons_bell_outline" data-tags="w_icons_bell_outline" d="M527.787 664.747l40.96-11.093c66.987-17.92 113.92-67.413 113.92-120.32 0-4.267 0-148.053 0-148.053l32.427-65.28h-406.187l32.427 65.28c0 0 0 143.787 0 148.053 0 52.907 46.933 102.4 113.92 120.32l40.533 11.093zM512 789.333c-35.84 0-66.133-22.187-78.933-52.907-102.827-28.16-177.067-108.373-177.067-203.093 0-10.24 0-128 0-128l-42.667-85.333c0 0 0-54.613 0-85.333h597.333c0 30.72 0 85.333 0 85.333l-42.667 85.333c0 0 0 117.76 0 128 0 94.72-74.24 174.933-177.067 203.093-12.8 30.72-43.093 52.907-78.933 52.907v0zM512 106.667c55.467 0 102.4 35.84 120.32 85.333h-240.64c17.92-49.493 64.853-85.333 120.32-85.333z" />
<glyph unicode="&#xe919;" glyph-name="w_icons_bell_small" data-tags="w_icons_bell_small" d="M512 192c31.147 0 58.453 17.493 73.387 42.667h-146.773c14.933-25.173 42.24-42.667 73.387-42.667zM725.333 362.667l-42.667 42.667v85.333c0 79.787-54.613 146.347-128.427 165.12 0 1.707 0.427 3.84 0.427 5.547 0 23.467-19.2 42.667-42.667 42.667s-42.667-19.2-42.667-42.667c0-1.707 0.427-3.84 0.427-5.547-73.813-18.773-128.427-85.333-128.427-165.12v-85.333l-42.667-42.667c0 0 0-82.347 0-85.333 0 0 0 0 0 0h426.667c0 0 0 0 0 0 0 2.987 0 85.333 0 85.333z" />
<glyph unicode="&#xe91a;" glyph-name="w_icons_bolt" data-tags="w_icons_bolt" d="M682.667 490.667h-170.667l42.667 256-213.333-341.333h170.667l-42.667-256z" />
<glyph unicode="&#xe91b;" glyph-name="w_icons_bolt_cricle" data-tags="w_icons_bolt_cricle" d="M512 832c-212.053 0-384-171.947-384-384s171.947-384 384-384 384 171.947 384 384c0 212.053-171.947 384-384 384zM469.333 149.333l42.667 256h-170.667l213.333 341.333-42.667-256h170.667l-213.333-341.333z" />
<glyph unicode="&#xe91c;" glyph-name="w_icons_book" data-tags="w_icons_book" d="M725.333 106.667l-213.333 154.453-213.333-154.453v554.667c0 70.827 57.173 128 128 128h170.667c70.827 0 128-57.173 128-128v-554.667z" />
<glyph unicode="&#xe91d;" glyph-name="w_icons_book_big" data-tags="w_icons_book_big" d="M768 64l-256 197.12-256-197.12v623.787c0 79.787 68.693 144.213 153.6 144.213h204.8c84.907 0 153.6-64.427 153.6-144.213v-623.787z" />
<glyph unicode="&#xe91e;" glyph-name="w_icons_book_big_outline" data-tags="w_icons_book_big_outline" d="M614.4 746.667c37.547 0 68.267-26.453 68.267-58.88v-450.56l-118.613 91.307-52.053 40.533-170.667-131.413v450.133c0 32.427 30.72 58.88 68.267 58.88h204.8zM614.4 832h-204.8c-84.907 0-153.6-64.427-153.6-144.213v-623.787l256 197.12 256-197.12v623.787c0 79.787-68.693 144.213-153.6 144.213v0z" />
<glyph unicode="&#xe91f;" glyph-name="w_icons_book_outline" data-tags="w_icons_book_outline" d="M597.333 704c23.467 0 42.667-19.2 42.667-42.667v-387.413l-78.080 56.32-49.92 36.693-128-93.013v387.413c0 23.467 19.2 42.667 42.667 42.667h170.667zM597.333 789.333h-170.667c-70.827 0-128-57.173-128-128v-554.667l213.333 154.453 213.333-154.453v554.667c0 70.827-57.173 128-128 128v0z" />
<glyph unicode="&#xe920;" glyph-name="w_icons_box" data-tags="w_icons_box" d="M512 832l-384-170.667v-426.667l384-170.667 384 170.667v426.667l-384 170.667zM512 513.707l-102.4 45.653 253.013 112.64 102.4-45.653-253.013-112.64zM610.133 695.040l-253.013-112.64-98.133 43.52 253.013 112.64 98.133-43.52zM213.333 552.96l256-113.92v-262.827l-256 113.92v262.827zM554.667 176.213v262.827l256 113.92v-262.827l-256-113.92z" />
<glyph unicode="&#xe921;" glyph-name="w_icons_box_office" data-tags="w_icons_box_office" d="M469.333 490.667h85.333v-42.667h-85.333v42.667zM426.667 405.333h170.667v-42.667h-170.667v42.667zM896 661.333v170.667h-768v-170.667h170.667v-42.667h-42.667c-70.827 0-128-57.173-128-128v-426.667h768v426.667c0 70.827-57.173 128-128 128h-42.667v42.667h170.667zM768 789.333h42.667v-85.333h-42.667v85.333zM554.667 746.667h42.667v-42.667h-42.667v42.667zM469.333 789.333h42.667v-85.333h-42.667v85.333zM384 746.667h42.667v-42.667h-42.667v42.667zM256 704h-42.667v85.333h42.667v-85.333zM298.667 746.667h42.667v-42.667h-42.667v42.667zM810.667 490.667v-341.333h-170.667c0 70.827-57.173 128-128 128s-128-57.173-128-128h-170.667v341.333c0 23.467 19.2 42.667 42.667 42.667h512c23.467 0 42.667-19.2 42.667-42.667zM682.667 618.667h-341.333v42.667h341.333v-42.667z" />
<glyph unicode="&#xe922;" glyph-name="w_icons_CA" data-tags="w_icons_CA" d="M872.533 337.92l-129.707 129.707c-16.213 16.213-37.12 23.467-59.733 23.467s-44.8-7.253-60.587-23.467c-28.16-28.16-32.427-71.68-12.373-104.533h-92.587c-40.96 0-85.333-32-91.307-72.533-8.107-53.333 32.853-98.56 84.053-98.56h99.413c-8.107-13.227-12.373-28.587-12.373-44.373 0-22.613 8.96-44.373 25.173-60.16s37.547-23.467 60.587-23.467c22.613 0 43.947 7.253 59.733 23.467l129.707 129.707c8.107 7.68 14.080 17.067 18.347 27.733 8.533 20.907 8.533 44.373 0 65.28-4.267 10.24-10.667 19.627-18.347 27.733zM851.627 261.12c-2.133-5.12-5.12-9.813-9.387-14.080l-129.707-129.707c-8.533-8.533-19.2-10.667-29.867-10.667-11.093 0-22.187 2.56-30.293 10.667-16.64 16.64-16.64 43.52 0 60.16l56.747 57.173h-198.827c-23.467 0-42.667 19.2-42.667 42.667s19.2 42.667 42.667 42.667h198.827l-56.747 56.747c-16.64 16.64-16.64 43.52 0 60.16 8.533 8.533 19.627 10.667 30.293 10.667 11.093 0 21.76-2.56 29.867-10.667l129.707-129.707c3.84-3.84 7.253-8.533 9.387-14.080 4.267-9.813 4.267-21.76 0-32zM139.093 545.707l129.707-129.707c16.64-16.64 43.52-16.64 60.16 0s16.64 43.52 0 60.16l-56.747 57.173h198.827c23.467 0 42.667 19.2 42.667 42.667s-19.2 42.667-42.667 42.667h-198.827l56.747 56.747c16.64 16.64 16.64 43.52 0 60.16-8.533 8.533-19.2 12.373-30.293 12.373s-21.76-3.84-29.867-11.947l-129.707-129.707c-3.84-3.84-6.827-8.96-9.387-14.080-4.267-10.24-4.267-22.187 0-32.427 2.56-5.12 5.547-10.24 9.387-14.080zM843.947 806.827c-21.333 15.787-47.36 25.173-75.52 25.173h-384l85.333-85.333h298.667c4.693 0 9.387-1.28 13.653-2.987 5.973-2.133 11.947-5.12 16.213-9.813 1.28-1.28 1.707-2.987 2.987-4.267 2.987-3.413 5.12-7.68 6.827-11.947s2.56-8.96 2.56-13.653v-128l85.333-85.333v213.333c0.427 42.24-20.48 79.36-52.053 102.827zM256.427 149.333c-11.947 0-22.613 4.693-30.293 12.373-1.28 1.28-1.707 2.987-2.987 4.267-2.987 3.413-5.12 7.68-6.827 11.947s-2.56 8.96-2.56 13.653v128l-85.333 85.333v-213.333c0-42.24 20.907-79.36 52.48-102.827 20.907-15.36 46.933-24.747 75.52-24.747h170.667l-42.667 85.333h-128z" />
<glyph unicode="&#xe923;" glyph-name="w_icons_calendar" data-tags="w_icons_calendar" d="M896 602.453c0 74.24-55.893 134.4-128 142.507v-40.96c0-46.933-38.4-85.333-85.333-85.333s-85.333 38.4-85.333 85.333v42.667h-170.667v-42.667c0-46.933-38.4-85.333-85.333-85.333s-85.333 38.4-85.333 85.333v40.96c-72.107-8.107-128-68.267-128-142.507v-394.667c0-79.36 64.427-143.787 144.213-143.787h480c79.36 0 144.213 64.427 144.213 144.213l-0.427 394.24zM810.667 197.12c0-26.453-21.333-47.787-47.787-47.787h-501.76c-26.453 0-47.787 21.333-47.787 47.787v336.213h597.333v-336.213zM341.333 661.333c23.467 0 42.667 19.2 42.667 42.667v85.333c0 23.467-19.2 42.667-42.667 42.667s-42.667-19.2-42.667-42.667v-85.333c0-23.467 19.2-42.667 42.667-42.667zM682.667 661.333c23.467 0 42.667 19.2 42.667 42.667v85.333c0 23.467-19.2 42.667-42.667 42.667s-42.667-19.2-42.667-42.667v-85.333c0-23.467 19.2-42.667 42.667-42.667zM597.333 362.667h128v-128h-128v128z" />
<glyph unicode="&#xe924;" glyph-name="w_icons_calendar_config" data-tags="w_icons_calendar_config" d="M341.333 661.333c23.467 0 42.667 19.2 42.667 42.667v85.333c0 23.467-19.2 42.667-42.667 42.667s-42.667-19.2-42.667-42.667v-85.333c0-23.467 19.2-42.667 42.667-42.667zM682.667 661.333c23.467 0 42.667 19.2 42.667 42.667v85.333c0 23.467-19.2 42.667-42.667 42.667s-42.667-19.2-42.667-42.667v-85.333c0-23.467 19.2-42.667 42.667-42.667zM491.52 135.68c-2.56 4.267-3.84 8.96-5.547 13.653h-224.853c-26.453 0-47.787 21.333-47.787 47.787v336.213h597.333v-55.467c15.787-8.96 29.013-22.187 37.547-38.827h5.12c14.933 0 29.44-4.267 42.667-10.667v174.080c0 74.24-55.893 134.4-128 142.507v-40.96c0-46.933-38.4-85.333-85.333-85.333s-85.333 38.4-85.333 85.333v42.667h-170.667v-42.667c0-46.933-38.4-85.333-85.333-85.333s-85.333 38.4-85.333 85.333v40.96c-72.107-8.107-128-68.267-128-142.507v-394.667c0-79.36 64.427-143.787 144.213-143.787h263.253c-3.413 3.84-6.827 7.253-9.387 11.52l-34.56 60.16zM894.72 290.56l-34.133 58.88c-1.707 2.56-4.267 4.267-7.253 4.267-0.853 0-2.133 0-2.987-0.427l-42.24-17.067c-8.96 6.827-18.347 12.373-28.587 16.64l-6.4 45.227c-0.853 3.84-4.267 7.253-8.533 7.253h-68.267c-4.267 0-7.68-2.987-8.533-7.253l-6.4-45.227c-10.24-4.267-20.053-9.813-28.587-16.64l-42.24 17.067c-0.853 0.427-2.133 0.427-2.987 0.427-2.987 0-5.973-1.707-7.253-4.267l-34.133-58.88c-2.133-3.84-1.28-8.107 2.133-11.093l36.267-28.16c-0.853-5.547-1.28-11.093-1.28-16.64s0.427-11.093 1.28-16.64l-36.267-28.16c-2.987-2.56-4.267-7.253-2.133-11.093l34.133-58.88c1.707-2.56 4.267-4.267 7.253-4.267 0.853 0 2.133 0 2.987 0.427l42.24 17.067c8.96-6.827 18.347-12.373 28.587-16.64l6.4-45.227c0.853-3.84 4.267-7.253 8.533-7.253h68.267c4.267 0 7.68 2.987 8.533 7.253l6.4 45.227c10.24 4.267 20.053 9.813 28.587 16.64l42.24-17.067c0.853-0.427 2.133-0.427 2.987-0.427 2.987 0 5.973 1.707 7.253 4.267l34.133 58.88c2.133 3.84 1.28 8.107-2.133 11.093l-36.267 28.16c0.853 5.547 1.28 11.093 1.28 16.64s-0.427 11.093-1.28 16.64l36.267 28.16c3.413 2.987 4.267 7.68 2.133 11.093zM730.027 170.667c-35.413 0-64 29.013-64 64 0 35.413 28.587 64 64 64s64-28.587 64-64c0-34.987-29.013-64-64-64z" />
<glyph unicode="&#xe925;" glyph-name="w_icons_camera" data-tags="w_icons_camera" d="M768 704h-256c0 46.933-38.4 85.333-85.333 85.333h-128c-46.933 0-85.333-38.4-85.333-85.333v-7.68c-49.493-17.92-85.333-64.853-85.333-120.32v-341.333c0-70.827 57.173-128 128-128h512c70.827 0 128 57.173 128 128v341.333c0 70.827-57.173 128-128 128zM512 192c-117.76 0-213.333 95.573-213.333 213.333s95.573 213.333 213.333 213.333 213.333-95.573 213.333-213.333-95.573-213.333-213.333-213.333zM640 405.333c0-70.692-57.308-128-128-128s-128 57.308-128 128c0 70.692 57.308 128 128 128s128-57.308 128-128z" />
<glyph unicode="&#xe926;" glyph-name="w_icons_camera_off" data-tags="w_icons_camera_off" d="M844.373 840.96l-136.533-136.96h-195.84c0 46.933-38.4 85.333-85.333 85.333h-128c-46.933 0-85.333-38.4-85.333-85.333v-7.68c-49.493-17.92-85.333-64.853-85.333-120.32v-341.333c0-30.72 11.093-58.88 29.44-80.64l-38.4-38.4 60.16-60.16 725.333 725.333-60.16 60.16zM534.187 530.773c-7.253 1.28-14.507 2.56-22.187 2.56-70.827 0-128-57.173-128-128 0-7.68 1.28-14.933 2.56-22.187l-67.84-67.84c-12.8 27.307-20.053 57.6-20.053 90.027 0 117.76 95.573 213.333 213.333 213.333 32.427 0 62.72-7.253 90.027-20.48l-67.84-67.413zM716.373 463.787c5.12-18.773 8.96-37.973 8.96-58.453 0-117.76-95.573-213.333-213.333-213.333-20.48 0-39.68 3.84-58.453 8.96l-94.72-94.293h409.173c70.827 0 128 57.173 128 128v341.333c0 19.627-4.693 37.973-12.8 55.040l-166.827-167.253zM637.867 385.707l-106.24-106.24c55.040 8.533 97.707 51.2 106.24 106.24z" />
<glyph unicode="&#xe927;" glyph-name="w_icons_cancel" data-tags="w_icons_cancel" d="M691.627 567.040l-60.587 60.587-119.040-119.467-119.040 119.467-60.587-60.587 119.467-119.040-119.467-119.040 60.587-60.587 119.040 119.467 119.040-119.467 60.587 60.587-119.467 119.040z" />
<glyph unicode="&#xe928;" glyph-name="w_icons_cancel_circle" data-tags="w_icons_cancel_circle" d="M512 832c-212.053 0-384-171.947-384-384s171.947-384 384-384 384 171.947 384 384c0 212.053-171.947 384-384 384zM691.627 328.96l-60.16-60.16-119.467 119.040-119.040-119.040-60.16 60.16 119.040 119.040-119.467 119.040 60.16 60.16 119.467-119.040 119.040 119.040 60.16-60.16-119.040-119.040 119.467-119.040z" />
<glyph unicode="&#xe929;" glyph-name="w_icons_card_list" data-tags="w_icons_card_list" d="M810.667 576h-597.333c-46.933 0-85.333-38.4-85.333-85.333v-85.333c0-46.933 38.4-85.333 85.333-85.333h597.333c46.933 0 85.333 38.4 85.333 85.333v85.333c0 46.933-38.4 85.333-85.333 85.333zM298.667 362.667c-46.933 0-85.333 38.4-85.333 85.333s38.4 85.333 85.333 85.333 85.333-38.4 85.333-85.333c0-46.933-38.4-85.333-85.333-85.333zM170.667 149.333c0-46.933 38.4-85.333 85.333-85.333h512c46.933 0 85.333 38.4 85.333 85.333v128h-682.667v-128zM341.333 277.333c46.933 0 85.333-38.4 85.333-85.333s-38.4-85.333-85.333-85.333-85.333 38.4-85.333 85.333c0 46.933 38.4 85.333 85.333 85.333zM256 704c0 46.933 38.4 85.333 85.333 85.333s85.333-38.4 85.333-85.333c0-46.933-38.4-85.333-85.333-85.333h512v128c0 46.933-38.4 85.333-85.333 85.333h-512c-46.933 0-85.333-38.4-85.333-85.333v-128h170.667c-46.933 0-85.333 38.4-85.333 85.333z" />
<glyph unicode="&#xe92a;" glyph-name="w_icons_card_stack" data-tags="w_icons_card_stack" d="M682.667 832h-341.333c-46.933 0-85.333-38.4-85.333-85.333v-597.333c0-46.933 38.4-85.333 85.333-85.333h341.333c46.933 0 85.333 38.4 85.333 85.333v597.333c0 46.933-38.4 85.333-85.333 85.333zM469.333 149.333h-128c-23.467 0-42.667 19.2-42.667 42.667s19.2 42.667 42.667 42.667h128v-85.333zM405.333 576c-58.88 0-106.667 47.787-106.667 106.667s47.787 106.667 106.667 106.667 106.667-47.787 106.667-106.667c0-58.88-47.787-106.667-106.667-106.667zM682.667 149.333h-128v85.333h128c23.467 0 42.667-19.2 42.667-42.667s-19.2-42.667-42.667-42.667zM824.747 704h-14.080v-512h14.080c39.253 0 71.253 25.6 71.253 56.747v398.507c0 31.147-32 56.747-71.253 56.747zM128 647.253v-398.080c0-31.573 32-57.173 71.253-57.173h14.080v512h-14.080c-39.253 0-71.253-25.6-71.253-56.747z" />
<glyph unicode="&#xe92b;" glyph-name="w_icons_chat" data-tags="w_icons_chat" d="M785.493 344.32c16.213 38.4 25.173 80.64 25.173 125.013 0 176.64-143.36 320-320 320s-320-143.36-320-320 143.36-320 320-320c44.373 0 86.613 8.96 125.013 25.173l237.653-67.84-67.84 237.653zM426.667 448v0c-1.707-39.68-10.24-85.333-64-85.333-11.947 0-21.333 9.387-21.333 21.333s9.387 21.333 21.333 21.333c13.653 0 19.627 6.827 20.907 42.667h-42.24v128h85.333v-128zM597.333 448v0c-1.707-39.68-10.24-85.333-64-85.333-11.947 0-21.333 9.387-21.333 21.333s9.387 21.333 21.333 21.333c13.653 0 19.627 6.827 20.907 42.667h-42.24v128h85.333v-128z" />
<glyph unicode="&#xe92c;" glyph-name="w_icons_chat_outline" data-tags="w_icons_chat_outline" d="M785.493 344.32c16.213 38.4 25.173 80.64 25.173 125.013 0 176.64-143.36 320-320 320s-320-143.36-320-320 143.36-320 320-320c44.373 0 86.613 8.96 125.013 25.173l237.653-67.84-67.84 237.653zM639.147 256.853l-29.013 8.107-27.733-11.947c-29.013-11.947-60.16-18.347-91.733-18.347-129.28 0-234.667 105.387-234.667 234.667s105.387 234.667 234.667 234.667 234.667-105.387 234.667-234.667c0-31.573-6.4-62.72-18.347-91.733l-11.947-27.733 8.107-29.013 25.6-90.027-89.6 26.027zM341.333 448h42.24c-1.28-35.84-7.253-42.667-20.907-42.667-11.947 0-21.333-9.387-21.333-21.333s9.387-21.333 21.333-21.333c53.76 0 62.293 45.653 63.573 85.333h0.427v128h-85.333v-128zM512 448h42.24c-1.28-35.84-7.253-42.667-20.907-42.667-11.947 0-21.333-9.387-21.333-21.333s9.387-21.333 21.333-21.333c53.76 0 62.293 45.653 63.573 85.333h0.427v128h-85.333v-128z" />
<glyph unicode="&#xe92d;" glyph-name="w_icons_check" data-tags="w_icons_check" d="M758.187 604.587c0 0-313.6-373.76-315.307-374.613 0 0 0 0 0 0-3.84-4.693-9.387-8.107-15.787-8.107s-11.947 2.987-15.787 7.68c0 0-0.427 0-0.427 0-1.707 0.853-144.213 160.853-144.213 160.853-15.36 17.92-13.227 44.8 4.693 60.16s44.8 13.227 60.16-4.693l95.147-110.933 266.24 323.413c14.933 18.347 41.813 20.907 60.16 5.973 17.493-14.933 20.053-41.813 5.12-59.733z" />
<glyph unicode="&#xe92e;" glyph-name="w_icons_check_circle" data-tags="w_icons_check_circle" d="M512 832c-212.053 0-384-171.947-384-384s171.947-384 384-384 384 171.947 384 384c0 212.053-171.947 384-384 384zM758.187 604.587c0 0-313.6-373.76-315.307-374.613 0 0 0 0 0 0-3.84-4.693-9.387-8.107-15.787-8.107s-11.947 2.987-15.787 7.68c0 0-0.427 0-0.427 0-1.707 0.853-144.213 160.853-144.213 160.853-15.36 17.92-13.227 44.8 4.693 60.16s44.8 13.227 60.16-4.693l95.147-110.933 266.24 323.413c14.933 18.347 41.813 20.907 60.16 5.973 17.493-14.933 20.053-41.813 5.12-59.733z" />
<glyph unicode="&#xe92f;" glyph-name="w_icons_circle_outline" data-tags="w_icons_circle_outline" d="M512 789.333c188.16 0 341.333-153.173 341.333-341.333s-153.173-341.333-341.333-341.333-341.333 153.173-341.333 341.333 153.173 341.333 341.333 341.333zM512 832c-212.053 0-384-171.947-384-384s171.947-384 384-384 384 171.947 384 384-171.947 384-384 384v0z" />
<glyph unicode="&#xe930;" glyph-name="w_icons_clip" data-tags="w_icons_clip" d="M512 832c-141.227 0-256-114.773-256-256v-320c0-106.24 85.76-192 192-192s192 85.76 192 192v277.333c0 70.827-57.173 128-128 128s-128-57.173-128-128v-213.333h85.333v213.333c0 23.467 19.2 42.667 42.667 42.667s42.667-19.2 42.667-42.667v-277.333c0-58.88-47.787-106.667-106.667-106.667s-106.667 47.787-106.667 106.667v320c0 94.293 76.373 170.667 170.667 170.667s170.667-76.373 170.667-170.667v-298.667h85.333v298.667c0 141.227-114.773 256-256 256z" />
<glyph unicode="&#xe931;" glyph-name="w_icons_clock-copia" data-tags="w_icons_clock copia" d="M512 661.333c-23.467 0-42.667-19.2-42.667-42.667v-213.333c0-1.28 0.427-2.56 0.853-3.84 0.427-2.987 0.853-5.547 1.707-8.533s1.707-5.547 3.413-8.107c0.427-1.28 0.853-2.56 1.28-3.413 1.28-1.707 2.987-3.413 4.267-4.693 0.853-0.853 1.28-1.28 1.707-2.133 3.413-3.413 7.253-5.973 11.947-8.107 0.853-0.427 1.707-0.853 2.987-1.28 4.267-1.28 9.387-2.56 14.507-2.56 0 0 0 0 0 0s0 0 0 0 0 0 0 0c5.12 0 9.813 1.28 14.507 2.987 1.707 0.427 2.987 1.28 4.267 2.133 1.707 0.853 2.987 1.28 4.693 2.133l128 85.333c19.627 13.227 24.747 39.68 11.947 59.307-13.227 19.627-39.68 24.747-59.307 11.947l-61.44-41.387v133.547c0 23.467-19.2 42.667-42.667 42.667zM554.667 149.333v46.507c-14.080-2.56-28.16-3.84-42.667-3.84-141.227 0-256 114.773-256 256s114.773 256 256 256 256-114.773 256-256c0-14.507-1.28-28.587-3.84-42.667h46.507v-42.667h31.573c6.827 27.307 11.093 55.893 11.093 85.333 0 188.587-152.747 341.333-341.333 341.333s-341.333-152.747-341.333-341.333 152.747-341.333 341.333-341.333c29.44 0 58.027 4.267 85.333 11.093v31.573h-42.667zM768 277.333v85.333h-85.333v-85.333h-85.333v-85.333h85.333v-85.333h85.333v85.333h85.333v85.333z" />
<glyph unicode="&#xe932;" glyph-name="w_icons_clock" data-tags="w_icons_clock" d="M616.533 526.080l-61.867-40.96v133.547c0 23.467-19.2 42.667-42.667 42.667s-42.667-19.2-42.667-42.667v-213.333c0-1.28 0.427-2.56 0.853-3.84 0.427-2.987 0.853-5.547 1.707-8.533s1.707-5.547 3.413-8.107c0.427-1.28 0.853-2.56 1.28-3.413 1.28-1.707 2.987-3.413 4.267-4.693 0.853-0.853 1.28-1.28 1.707-2.133 3.413-3.413 7.253-5.973 11.947-8.107 0.853-0.427 1.707-0.853 2.987-1.28 4.267-1.28 9.387-2.56 14.507-2.56 0 0 0 0 0 0s0 0 0 0 0 0 0 0c5.12 0 9.813 1.28 14.507 2.987 1.707 0.427 2.987 1.28 4.267 2.133 1.707 0.853 2.987 1.28 4.693 2.133l128 85.333c19.627 13.227 24.747 39.68 11.947 59.307-12.8 19.2-39.253 24.747-58.88 11.52zM512 789.333c-188.587 0-341.333-152.747-341.333-341.333s152.747-341.333 341.333-341.333 341.333 152.747 341.333 341.333-152.747 341.333-341.333 341.333zM512 192c-141.227 0-256 114.773-256 256s114.773 256 256 256 256-114.773 256-256-114.773-256-256-256z" />
<glyph unicode="&#xe933;" glyph-name="w_icons_code" data-tags="w_icons_code" d="M226.133 320l-98.133 127.573 98.133 128.427h125.013l-98.133-128.427 98.133-127.573h-125.013zM640 789.333l-170.667-682.667h-85.333l170.667 682.667h85.333zM672.853 576h125.013l98.133-128.427-98.133-127.573h-125.013l98.133 127.573-98.133 128.427z" />
<glyph unicode="&#xe934;" glyph-name="w_icons_copy" data-tags="w_icons_copy" d="M853.333 661.333c0 42.24-20.907 79.36-52.48 102.827-21.333 15.787-46.933 25.173-75.52 25.173h-298.667c-55.467 0-102.4-35.84-120.32-85.333h418.987c23.467 0 42.667-19.2 42.667-42.667v-130.56c0 0 0 0 0 0v-288c49.493 17.493 85.333 64.427 85.333 120.32v298.24zM298.667 661.333c-70.827 0-128-57.173-128-128v-298.667c0-70.827 57.173-128 127.573-128 163.84 0 299.093 0 299.093 0 70.827 0 128 57.173 128 128v213.333l-213.333 213.333h-213.333zM640 234.667c0-23.467-19.2-42.667-42.667-42.667h-298.667c-23.467 0-42.667 19.2-42.667 42.667v298.667c0 23.467 19.2 42.667 42.667 42.667h170.667v-170.667h170.667v-170.667z" />
<glyph unicode="&#xe935;" glyph-name="w_icons_cowork" data-tags="w_icons_cowork" d="M725.333 789.333h-170.667l85.333-85.333h85.333c23.467 0 42.667-19.2 42.667-42.667v-170.667h85.333v170.667c0 70.827-57.173 128-128 128zM298.667 192c-23.467 0-42.667 19.2-42.667 42.667v170.667h-85.333v-170.667c0-70.827 57.173-128 128-128h170.667l-85.333 85.333h-85.333zM213.333 574.293h198.827l-56.747-56.747c-16.64-16.64-16.64-43.52 0-60.16s43.52-16.64 60.16 0l129.707 129.707c3.84 3.84 7.253 8.533 9.387 14.080 4.267 10.24 4.267 22.187 0 32.427-2.133 5.12-5.12 9.813-9.387 14.080l-129.28 129.28c-8.533 8.107-19.627 12.373-30.293 12.373s-21.76-4.267-30.293-12.373c-16.64-16.64-16.64-43.52 0-60.16l56.747-56.747h-198.827c-23.467 0-42.667-19.2-42.667-42.667s19.2-43.093 42.667-43.093zM810.667 321.707h-198.827l56.747 56.747c16.64 16.64 16.64 43.52 0 60.16s-43.52 16.64-60.16 0l-129.707-129.707c-3.84-3.84-7.253-8.533-9.387-14.080-4.267-10.24-4.267-22.187 0-32.427 2.133-5.12 5.12-9.813 9.387-14.080l129.707-129.707c8.533-8.533 19.2-12.373 30.293-12.373s21.76 4.267 30.293 12.373c16.64 16.64 16.64 43.52 0 60.16l-56.747 56.747h198.4c23.467 0 42.667 19.2 42.667 42.667s-19.2 43.52-42.667 43.52z" />
<glyph unicode="&#xe936;" glyph-name="w_icons_delete" data-tags="w_icons_delete" d="M768 661.333c0 23.467-19.2 42.667-42.667 42.667h-128c0 46.933-38.4 85.333-85.333 85.333s-85.333-38.4-85.333-85.333h-128c-23.467 0-42.667-19.2-42.667-42.667h-42.667v-42.667h597.333v42.667h-42.667zM469.333 704c0 23.467 19.2 42.667 42.667 42.667s42.667-19.2 42.667-42.667h-85.333zM256 192c0-46.933 38.4-85.333 85.333-85.333h341.333c46.933 0 85.333 38.4 85.333 85.333v384h-512v-384zM640 490.667h42.667v-298.667h-42.667v298.667zM469.333 490.667h85.333v-298.667h-85.333v298.667zM341.333 490.667h42.667v-298.667h-42.667v298.667z" />
<glyph unicode="&#xe937;" glyph-name="w_icons_doc" data-tags="w_icons_doc" d="M640 832h-341.333c-70.827 0-128-57.173-128-128v-512c0-70.827 57.173-128 127.573-128 163.84 0 427.093 0 427.093 0 70.827 0 128 57.173 128 128v426.667l-213.333 213.333zM768 192c0-23.467-19.2-42.667-42.667-42.667h-426.667c-23.467 0-42.667 19.2-42.667 42.667v512c0 23.467 19.2 42.667 42.667 42.667h298.667v-170.667h170.667v-384zM341.333 533.333h341.333v-42.667h-341.333v42.667zM341.333 405.333h341.333v-42.667h-341.333v42.667zM341.333 277.333h256v-42.667h-256v42.667z" />
<glyph unicode="&#xe938;" glyph-name="w_icons_doc_add" data-tags="w_icons_doc_add" d="M298.667 533.333h341.333v-42.667h-341.333v42.667zM298.667 405.333h298.667v-42.667h-298.667v42.667zM298.667 277.333h170.667v-42.667h-170.667v42.667zM213.333 192v512c0 23.467 19.2 42.667 42.667 42.667h298.667v-170.667h170.667v-85.333h85.333v128l-213.333 213.333h-341.333c-70.827 0-128-57.173-128-128v-512c0-70.827 57.173-128 127.573-128 123.307 0 132.267 0 213.76 0v85.333h-213.333c-23.467 0-42.667 19.2-42.667 42.667zM768 277.333v128h-85.333v-128h-128v-85.333h128v-128h85.333v128h128v85.333z" />
<glyph unicode="&#xe939;" glyph-name="w_icons_download" data-tags="w_icons_download" d="M725.333 362.667v-128c0-23.040-19.627-42.667-42.667-42.667h-341.333c-23.040 0-42.667 19.627-42.667 42.667v128h-85.333v-128c0-70.4 57.6-128 128-128h341.333c70.4 0 128 57.6 128 128v128h-85.333zM481.707 289.707c3.84-3.84 8.533-7.253 14.080-9.387 10.24-4.267 22.187-4.267 32.427 0 5.12 2.133 9.813 5.12 14.080 9.387l129.707 129.707c16.64 16.64 16.64 43.52 0 60.16s-43.52 16.64-60.16 0l-57.173-56.747v323.84c0 23.467-19.2 42.667-42.667 42.667s-42.667-19.2-42.667-42.667v-323.84l-56.747 56.747c-16.64 16.64-43.52 16.64-60.16 0-8.533-8.533-12.373-19.2-12.373-30.293s4.267-21.76 12.373-30.293l129.28-129.28z" />
<glyph unicode="&#xe93a;" glyph-name="w_icons_drag" data-tags="w_icons_drag" d="M170.667 533.333h682.667v-42.667h-682.667v42.667zM170.667 405.333h682.667v-42.667h-682.667v42.667z" />
<glyph unicode="&#xe93b;" glyph-name="w_icons_edit" data-tags="w_icons_edit" d="M224.853 190.293c-6.4-22.613 6.827-35.84 29.44-29.44l78.080 22.187c22.613 6.4 27.307 25.173 10.667 41.813l-54.187 54.187c-16.64 16.64-35.413 11.52-41.813-10.667l-22.187-78.080zM448 274.347c-16.64-16.64-43.947-16.64-60.16 0l-49.493 49.493c-16.64 16.64-16.64 43.947 0 60.16l332.373 332.373c16.64 16.64 43.947 16.64 60.16 0l49.493-49.493c16.64-16.64 16.64-43.947 0-60.16l-332.373-332.373z" />
<glyph unicode="&#xe93c;" glyph-name="w_icons_edit_box" data-tags="w_icons_edit_box" d="M341.333 277.333l137.387 39.253-98.133 98.133zM422.52 452.559l336.693 336.693 94.129-94.129-336.693-336.693-94.129 94.129zM768 234.667c0-23.467-19.2-42.667-42.667-42.667h-426.667c-23.467 0-42.667 19.2-42.667 42.667v426.667c0 23.467 19.2 42.667 42.667 42.667h213.333v85.333h-213.333c-70.827 0-128-57.173-128-128v-426.667c0-70.827 57.173-128 128-128h426.667c70.827 0 128 57.173 128 128v213.333h-85.333v-213.333z" />
<glyph unicode="&#xe93d;" glyph-name="w_icons_edit_circle" data-tags="w_icons_edit_circle" d="M512 832c-212.053 0-384-171.947-384-384s171.947-384 384-384 384 171.947 384 384c0 212.053-171.947 384-384 384zM256 192l39.253 136.96 98.133-98.133-137.387-38.827zM431.36 273.067l-94.293 94.293 336.64 336.64 94.293-94.293-336.64-336.64z" />
<glyph unicode="&#xe93e;" glyph-name="w_icons_envelope" data-tags="w_icons_envelope" d="M893.013 255.573c1.707 6.827 2.987 14.080 2.987 21.76v341.333c0 7.68-1.28 14.933-2.987 21.76l-192.853-192.427 192.853-192.427zM130.987 640.427c-1.707-6.827-2.987-14.080-2.987-21.76v-341.333c0-7.68 1.28-14.933 2.987-21.76l192.853 192.427-192.853 192.427zM512 348.16c-44.373 0-88.32 14.507-125.867 41.813l-194.987-194.987c7.253-1.707 14.507-2.987 22.187-2.987h597.333c7.68 0 14.933 1.28 21.76 2.987l-194.987 194.987c-37.12-27.307-81.067-41.813-125.44-41.813zM810.667 704h-597.333c-7.68 0-14.933-1.28-21.76-2.987l229.973-229.973c49.92-49.92 130.987-49.92 180.907 0l229.973 229.973c-6.827 1.707-14.080 2.987-21.76 2.987z" />
<glyph unicode="&#xe93f;" glyph-name="w_icons_euro" data-tags="w_icons_euro" d="M512 789.333c-188.16 0-341.333-153.173-341.333-341.333s153.173-341.333 341.333-341.333 341.333 153.173 341.333 341.333c0 188.16-153.173 341.333-341.333 341.333zM533.76 513.28v-45.653h-148.053c-0.853-9.813-1.28-17.92-1.28-23.893s0.427-14.933 1.28-26.453h148.053v-45.227h-136.96c9.813-26.453 25.6-46.933 46.933-62.293 21.333-14.933 46.080-22.613 73.813-22.613 31.147 0 57.6 7.68 79.36 22.613 22.187 14.933 38.4 35.413 48.64 61.44h101.547c-12.8-53.333-38.827-95.573-78.507-126.293-39.68-31.147-89.6-46.507-149.333-46.507-57.173 0-105.813 15.787-145.92 46.933-39.68 31.573-66.133 73.387-79.36 126.293h-58.453v45.227h52.053c-0.853 11.947-1.28 20.48-1.28 26.453 0 11.093 0 18.773 0.853 23.893h-51.2v45.653h58.027c12.373 54.613 38.827 97.28 78.933 129.28 40.107 31.573 88.747 47.36 146.773 47.36 60.16 0 110.080-15.36 149.333-46.507 39.68-31.147 65.707-72.96 78.507-126.293h-101.547c-10.667 26.027-26.88 46.507-48.64 61.44-22.187 14.933-48.64 22.613-79.36 22.613-28.16 0-52.907-7.68-74.24-23.040s-37.12-36.693-46.933-64.427h136.96z" />
<glyph unicode="&#xe940;" glyph-name="w_icons_euroReload" data-tags="w_icons_euroReload" d="M810.667 277.333v85.333h-85.333v-85.333h-85.333v-85.333h85.333v-85.333h85.333v85.333h85.333v85.333zM597.333 209.067c-23.893-6.827-49.493-10.667-77.653-10.667-57.173 0-105.813 15.787-145.92 46.933-39.68 31.573-66.133 73.387-79.36 126.293h-58.88v45.227h52.053c-0.853 11.947-1.28 20.48-1.28 26.453 0 11.093 0 18.773 0.853 23.893h-51.2v45.653h58.027c12.373 54.613 38.827 97.28 78.933 129.28 40.107 31.573 88.747 47.36 146.773 47.36 60.16 0 110.080-15.36 149.333-46.507 39.68-31.147 65.707-72.96 78.507-126.293h-101.547c-10.667 26.027-26.88 46.507-48.64 61.44-22.187 14.933-48.64 22.613-79.36 22.613-28.16 0-52.907-7.68-74.24-23.040s-37.12-36.693-46.933-64.427h137.813v-45.653h-148.907c-0.853-9.813-1.28-17.92-1.28-23.893s0.427-14.933 1.28-26.453h148.053v-45.227h-136.96c9.813-26.453 25.6-46.933 46.933-62.293 21.333-14.933 46.080-22.613 73.813-22.613 31.147 0 57.6 7.68 79.36 22.613 0 0 0 0 0.427 0.427v9.813h10.667c16.213 13.653 29.44 30.293 37.973 51.2h36.693v34.133h167.68c1.707 14.080 2.987 28.16 2.987 42.667 0 188.16-153.173 341.333-341.333 341.333s-341.333-153.173-341.333-341.333c0-188.16 153.173-341.333 341.333-341.333 59.733 0 116.053 15.36 164.693 42.667h-79.36v59.733z" />
<glyph unicode="&#xe941;" glyph-name="w_icons_exclamation_circle" data-tags="w_icons_exclamation_circle" d="M512 832c-212.053 0-384-171.947-384-384s171.947-384 384-384 384 171.947 384 384c0 212.053-171.947 384-384 384zM597.333 149.333h-170.667v170.667h170.667v-170.667zM578.56 362.667h-133.973l-18.347 384h171.52l-19.2-384z" />
<glyph unicode="&#xe942;" glyph-name="w_icons_exclamation_warning" data-tags="w_icons_exclamation_warning" d="M841.813 279.040l-251.307 425.813c-35.413 59.733-121.6 59.733-157.013 0l-251.307-425.813c-33.707-57.173 9.813-128 78.507-128h502.187c69.12 0 112.64 70.827 78.933 128zM554.667 236.373h-85.333v84.907h85.333v-84.907zM545.28 364.373h-66.56l-8.96 213.333h85.333l-9.813-213.333z" />
<glyph unicode="&#xe943;" glyph-name="w_icons_exclamation-12" data-tags="w_icons_exclamation-12" d="M597.76 746.667l-19.2-384h-133.973l-18.347 384h171.52zM597.333 320v-170.667h-170.667v170.667h170.667z" />
<glyph unicode="&#xe944;" glyph-name="w_icons_exclamation-148" data-tags="w_icons_exclamation-148" d="M570.027 281.6l-32-174.933h-180.48l31.147 174.933h181.333zM666.453 789.333l-99.413-439.467h-153.173l56.747 439.467z" />
<glyph unicode="&#xe945;" glyph-name="w_icons_exhibitor" data-tags="w_icons_exhibitor" d="M512 581.973c32 0 113.92 50.773 113.92 113.92 0 3.84 0 7.68 0 11.52 0.427 35.413 0.853 71.68-23.893 96.853-17.92 18.773-47.36 27.733-90.027 27.733s-71.68-8.96-90.027-27.307c-24.747-25.173-24.32-61.44-23.893-96.853 0-3.84 0-7.68 0-11.52 0-63.573 81.92-114.347 113.92-114.347zM896 320h-768v-170.667h85.333v-42.667c0-23.467 19.2-42.667 42.667-42.667s42.667 19.2 42.667 42.667v42.667h426.667v-42.667c0-23.467 19.2-42.667 42.667-42.667s42.667 19.2 42.667 42.667v42.667h85.333v170.667zM713.387 477.867c-4.693 17.92-31.573 34.133-54.187 40.107 0 0 0 0 0 0-4.267 1.28-108.8 26.88-146.773 26.88s-142.507-26.027-146.773-27.307c-23.467-5.547-49.92-21.76-54.613-39.68l-40.107-115.2h482.133l-39.68 115.2z" />
<glyph unicode="&#xe946;" glyph-name="w_icons_exit" data-tags="w_icons_exit" d="M651.093 288c8.533-8.533 19.2-12.373 30.293-12.373s21.76 4.267 30.293 12.373l129.707 129.707c3.84 3.84 7.253 8.533 9.387 14.080 4.267 10.24 4.267 22.187 0 32.427-2.133 5.12-5.12 9.813-9.387 14.080l-129.707 129.707c-16.64 16.64-43.52 16.64-60.16 0s-16.64-43.52 0-60.16l56.32-57.173h-198.827c-23.467 0-42.667-19.2-42.667-42.667s19.2-42.667 42.667-42.667h198.827l-56.747-56.747c-16.64-16.64-16.64-43.52 0-60.587zM800.853 764.16c-21.333 15.787-46.933 25.173-75.52 25.173h-426.667c-70.827 0-128-57.173-128-128v-426.667c0-42.24 20.907-79.36 52.48-102.827 21.333-15.787 46.933-25.173 75.52-25.173h426.667c70.827 0 128 57.173 128 128h-85.333c0-23.467-19.2-42.667-42.667-42.667h-426.667c-23.467 0-42.667 19.2-42.667 42.667v426.667c0 23.467 19.2 42.667 42.667 42.667h426.667c23.467 0 42.667-19.2 42.667-42.667v0h85.333c0 42.24-20.907 79.36-52.48 102.827z" />
<glyph unicode="&#xe947;" glyph-name="w_icons_expand" data-tags="w_icons_expand" d="M469.333 192h-213.333v213.333h85.333v-128h128v-85.333zM768 490.667h-85.333v128h-128v85.333h213.333v-213.333zM256 490.667v213.333h213.333v-85.333h-128v-128h-85.333zM554.667 192v85.333h128v128h85.333v-213.333h-213.333z" />
<glyph unicode="&#xe948;" glyph-name="w_icons_eye_closed" data-tags="w_icons_eye_closed" d="M844.373 474.027c-14.507 18.773-40.96 22.187-59.733 8.107-0.853-0.853-102.4-76.8-272.64-76.8-169.813 0-271.36 75.52-272.64 76.373-18.773 14.507-45.227 10.667-59.733-7.68-14.507-18.773-11.093-45.227 7.68-59.733 2.987-2.133 47.36-35.84 125.867-62.293l-44.373-44.373c-16.64-16.64-16.64-43.52 0-60.16 8.107-8.533 18.773-12.8 29.867-12.8s21.76 4.267 30.293 12.373l81.067 81.067c18.773-2.987 38.827-5.12 59.733-6.4v-87.040c0-23.467 19.2-42.667 42.667-42.667s42.667 19.2 42.667 42.667v87.040c20.907 1.28 40.96 3.413 59.733 6.4l81.067-81.067c7.68-8.107 18.347-12.373 29.44-12.373s21.76 4.267 30.293 12.373c16.64 16.64 16.64 43.52 0 60.16l-44.373 44.373c78.507 26.453 122.88 59.733 125.867 62.293 18.347 14.933 21.76 41.387 7.253 60.16z" />
<glyph unicode="&#xe949;" glyph-name="w_icons_eye_open" data-tags="w_icons_eye_open" d="M512 661.333c-188.587 0-341.333-213.333-341.333-213.333s152.747-213.333 341.333-213.333 341.333 213.333 341.333 213.333-152.747 213.333-341.333 213.333zM512 320c-87.467 0-175.787 71.253-229.973 128 29.013 30.293 67.84 64.853 111.36 90.453-5.973-14.933-9.387-30.72-9.387-47.787 0-70.827 57.173-128 128-128s128 57.173 128 128c0 17.067-3.413 32.853-9.387 47.787 43.093-25.6 82.347-59.733 111.36-90.453-54.187-56.747-142.507-128-229.973-128z" />
<glyph unicode="&#xe94a;" glyph-name="w_icons_face_happy" data-tags="w_icons_face_happy" d="M512 832c-212.053 0-384-171.947-384-384s171.947-384 384-384 384 171.947 384 384c0 212.053-171.947 384-384 384zM213.333 533.333c0 46.933 38.4 85.333 85.333 85.333s85.333-38.4 85.333-85.333c0-46.933-38.4-85.333-85.333-85.333s-85.333 38.4-85.333 85.333zM512 192c-103.253 0-189.44 73.387-209.067 170.667h418.133c-19.627-97.28-105.813-170.667-209.067-170.667zM725.333 448c-46.933 0-85.333 38.4-85.333 85.333s38.4 85.333 85.333 85.333 85.333-38.4 85.333-85.333c0-46.933-38.4-85.333-85.333-85.333z" />
<glyph unicode="&#xe94b;" glyph-name="w_icons_face_sad" data-tags="w_icons_face_sad" d="M512 832c-212.053 0-384-171.947-384-384s171.947-384 384-384 384 171.947 384 384c0 212.053-171.947 384-384 384zM213.333 533.333c0 46.933 38.4 85.333 85.333 85.333s85.333-38.4 85.333-85.333c0-46.933-38.4-85.333-85.333-85.333s-85.333 38.4-85.333 85.333zM512 448c103.253 0 189.44-73.387 209.067-170.667h-418.133c19.627 97.28 105.813 170.667 209.067 170.667zM725.333 448c-46.933 0-85.333 38.4-85.333 85.333s38.4 85.333 85.333 85.333 85.333-38.4 85.333-85.333c0-46.933-38.4-85.333-85.333-85.333z" />
<glyph unicode="&#xe94c;" glyph-name="w_icons_food" data-tags="w_icons_food" d="M597.333 192h-426.667c-23.467 0-42.667-19.2-42.667-42.667s19.2-42.667 42.667-42.667h426.667c23.467 0 42.667 19.2 42.667 42.667s-19.2 42.667-42.667 42.667zM561.92 320h-355.84c-19.627 0-35.413-19.2-35.413-42.667s15.787-42.667 35.413-42.667h355.413c19.627 0 35.413 19.2 35.413 42.667 0.427 23.467-15.36 42.667-34.987 42.667zM512 533.333h-256c-70.827 0-128-57.173-128-128 0-23.467 19.2-42.667 42.667-42.667h426.667c23.467 0 42.667 19.2 42.667 42.667 0 70.827-57.173 128-128 128zM768 746.667h128v42.667h-128c-32.853 0-65.707-58.027-93.013-128h-205.653v-42.667h42.667l3.413-42.667h39.253c70.827 0 128-57.173 128-128v-341.333h125.44l45.227 512h42.667v42.667h-174.507c19.2 46.933 37.547 80.64 46.507 85.333z" />
<glyph unicode="&#xe94d;" glyph-name="w_icons_gaming" data-tags="w_icons_gaming" d="M810.667 320h-42.667v42.667h-213.333v-42.667h-128v178.347c49.493 17.92 85.333 64.853 85.333 120.32 0 70.827-57.173 128-128 128s-128-57.173-128-128c0-55.467 35.84-102.4 85.333-120.32v-178.347h-128c-46.933 0-85.333-38.4-85.333-85.333s38.4-85.333 85.333-85.333h597.333c46.933 0 85.333 38.4 85.333 85.333s-38.4 85.333-85.333 85.333z" />
<glyph unicode="&#xe94e;" glyph-name="w_icons_handshake" data-tags="w_icons_handshake" d="M768 576v-213.333c0-46.933 38.4-85.333 85.333-85.333h37.973c1.707-0.427 2.987 0 4.693 0 0 102.4 0 298.667 0 298.667h-128zM832 320c-11.947 0-21.333 9.387-21.333 21.333s9.387 21.333 21.333 21.333 21.333-9.387 21.333-21.333-9.387-21.333-21.333-21.333zM128 277.333c1.707 0 3.413-0.427 4.693 0h37.973c46.933 0 85.333 38.4 85.333 85.333v213.333h-128c0 0 0-196.267 0-298.667zM192 362.667c11.947 0 21.333-9.387 21.333-21.333s-9.387-21.333-21.333-21.333-21.333 9.387-21.333 21.333 9.387 21.333 21.333 21.333zM557.227 439.893l-5.973-5.12c-23.040-18.773-52.053-29.44-81.92-29.44-37.973 0-73.813 16.64-98.56 46.080-21.76 26.453-32.427 59.733-29.013 93.44 2.987 34.133 19.2 64.853 45.653 86.613l35.413 29.867h-38.827l-85.333-85.333v-256l117.333-117.333c6.827-6.827 16.213-10.667 25.173-10.667s17.92 3.84 24.747 10.667l28.587 28.587 12.373-12.373c16.64-16.64 43.52-16.64 60.16 0l33.707 33.707 17.92-17.92c13.653-13.653 35.84-13.653 49.493 0l25.173 25.173c9.813 9.813 11.093 33.28 0.427 43.947l-136.533 136.107zM554.667 704l-126.293-121.6c-27.307-22.613-30.72-63.147-8.107-90.027 12.8-15.36 30.72-23.040 49.067-23.040 14.507 0 29.013 4.693 40.96 14.933l46.933 38.827c0.853 0 2.56 0.853 4.693 2.987l163.413-163.413v213.333l-128 128h-42.667z" />
<glyph unicode="&#xe94f;" glyph-name="w_icons_heart" data-tags="w_icons_heart" d="M896 576c0 117.76-95.573 213.333-213.333 213.333-69.973 0-131.84-34.133-170.667-86.613-38.827 52.48-100.693 86.613-170.667 86.613-117.76 0-213.333-95.573-213.333-213.333 0-58.88 23.893-112.213 62.72-151.040l321.28-318.293 321.707 318.293c38.4 38.827 62.293 92.16 62.293 151.040z" />
<glyph unicode="&#xe950;" glyph-name="w_icons_heart_broken" data-tags="w_icons_heart_broken" d="M682.667 789.333c-51.2 0-97.707-18.347-134.4-48.64l-39.68-170.667h146.347l-183.040-292.693 36.693 219.307h-102.4l45.653 261.12c-32.427 19.627-69.973 31.573-110.507 31.573-117.76 0-213.333-95.573-213.333-213.333 0-58.88 23.893-112.213 62.72-151.040l321.28-318.293 321.707 318.293c38.4 38.827 62.293 92.16 62.293 151.040 0 117.76-95.573 213.333-213.333 213.333z" />
<glyph unicode="&#xe951;" glyph-name="w_icons_helpCenter" data-tags="w_icons_helpCenter" d="M850.347 598.187c-14.933 55.893-42.24 105.813-81.92 145.067-57.6 57.173-136.533 88.747-222.72 88.747-0.853 0-1.28 0-2.133 0 0 0-62.72 0-64.853 0-137.813-4.267-246.613-94.293-290.133-226.987-34.56-10.667-60.587-48.213-60.587-93.013v-96c0-52.907 35.84-96 80.213-96s80.213 43.093 80.213 96v96c0 32.853-14.080 62.293-35.413 79.36 34.133 96 111.36 172.8 228.267 176.64 2.987 0 63.573 0 63.573 0 0.427 0 1.28 0 1.707 0 69.973 0 131.413-24.32 177.493-69.973 27.307-26.88 47.36-60.587 60.16-98.56-27.733-14.933-47.36-48.64-47.36-87.467v-96c0-45.227 26.453-83.2 61.44-93.013-14.507-96.853-98.56-188.16-192.853-217.173-8.533 12.8-32.427 22.187-60.587 22.187-34.987 0-64-14.507-64-32s28.16-32 63.147-32c30.72 0 56.32 11.093 62.72 25.6 111.36 27.307 186.027 113.493 218.027 231.68 39.68 5.12 71.253 45.653 71.253 94.72v96c0 37.973-18.773 70.827-45.653 86.187z" />
<glyph unicode="&#xe952;" glyph-name="w_icons_history" data-tags="w_icons_history" d="M753.067 689.067c-61.44 61.867-146.773 100.267-241.067 100.267-188.16 0-341.333-153.173-341.333-341.333v-188.16l230.827 230.827h-141.653c0 0.853 0.427 1.707 0.427 2.987 2.133 12.8 5.547 25.6 9.813 37.973 0.853 2.133 1.707 4.267 2.56 6.827 4.693 11.947 9.813 23.467 16.213 34.56 0.853 1.707 2.133 2.987 2.987 4.693 6.827 11.947 14.507 23.040 23.040 33.28 0 0.427 0.427 0.427 0.853 0.853 8.533 10.24 17.92 19.627 28.16 28.587 1.28 0.853 2.133 2.133 3.413 2.987 9.813 8.533 20.48 15.787 31.573 22.613 1.707 1.28 3.84 2.133 5.547 3.413 11.093 6.4 22.613 11.947 34.987 16.64 2.133 0.853 4.267 1.707 6.4 2.133 12.373 4.267 25.173 8.107 38.4 10.667 1.707 0.427 3.413 0.427 5.12 0.853 13.653 2.56 28.16 4.267 42.667 4.267 70.4 0 134.4-28.587 180.907-75.093s75.093-110.507 75.093-180.907c0-141.227-114.773-256-256-256-23.467 0-46.080 3.413-67.413 9.387l-50.773-72.96c36.693-14.080 76.373-21.76 118.187-21.76 50.347 0 82.347 6.4 100.267 14.933 139.52 43.093 241.067 173.227 241.067 326.4 0 94.293-38.4 179.627-100.267 241.067zM512 661.333c-23.467 0-42.667-19.2-42.667-42.667v-213.333c0-1.28 0.427-2.56 0.853-3.84 0.427-2.987 0.853-5.547 1.707-8.533s1.707-5.547 3.413-8.107c0.427-1.28 0.853-2.56 1.28-3.413 1.28-1.707 2.987-3.413 4.267-4.693 0.853-0.853 1.28-1.28 1.707-2.133 3.413-3.413 7.253-5.973 11.947-8.107 0.853-0.427 1.707-0.853 2.987-1.28 4.267-1.28 9.387-2.56 14.507-2.56 0 0 0 0 0 0s0 0 0 0 0 0 0 0c5.12 0 9.813 1.28 14.507 2.987 1.707 0.427 2.987 1.28 4.267 2.133 1.707 0.853 2.987 1.28 4.693 2.133l128 85.333c19.627 13.227 24.747 39.68 11.947 59.307-13.227 19.627-39.68 24.747-59.307 11.947l-61.44-41.387v133.547c0 23.467-19.2 42.667-42.667 42.667z" />
<glyph unicode="&#xe953;" glyph-name="w_icons_hotel" data-tags="w_icons_hotel" d="M426.667 618.667h170.667v-128h85.333v341.333h-85.333v-128h-170.667v128h-85.333v-341.333h85.333zM666.453 172.8l-26.453 53.333-26.453-53.333-58.88-8.533 42.667-41.387-10.24-58.88 52.907 27.733 52.907-27.733-10.24 58.88 42.667 41.387zM410.453 172.8l-26.453 53.333-26.453-53.333-58.88-8.533 42.667-41.387-10.24-58.88 52.907 27.733 52.907-27.733-10.24 58.88 42.667 41.387zM298.667 336.213l42.667 41.387-58.88 8.533-26.453 53.333-26.453-53.333-58.88-8.533 42.667-41.387-10.24-58.88 52.907 27.733 52.907-27.733zM853.333 377.6l-58.88 8.533-26.453 53.333-26.453-53.333-58.88-8.533 42.667-41.387-10.24-58.88 52.907 27.733 52.907-27.733-10.24 58.88zM554.667 336.213l42.667 41.387-58.88 8.533-26.453 53.333-26.453-53.333-58.88-8.533 42.667-41.387-10.24-58.88 52.907 27.733 52.907-27.733z" />
<glyph unicode="&#xe954;" glyph-name="w_icons_hotel_big" data-tags="w_icons_hotel_big" d="M682.667 661.333h-341.333v298.667h-170.667v-768h170.667v298.667h341.333v-298.667h170.667v768h-170.667zM538.453 44.8l-26.453 53.333-26.453-53.333-58.88-8.533 42.667-41.387-10.24-58.88 52.907 27.733 52.907-27.733-10.24 58.88 42.667 41.387zM111.787 51.2l-26.453 53.333-26.453-53.333-58.88-8.533 42.667-41.813-10.24-58.453 52.907 27.733 52.907-27.733-10.24 58.453 42.667 41.813zM1024 40.533l-58.88 8.533-26.453 53.333-26.453-53.333-58.88-8.533 42.667-41.813-10.24-58.453 52.907 27.733 52.907-27.733-10.24 58.453zM751.787 46.933l-26.453 53.333-26.453-53.333-58.88-8.533 42.667-41.387-10.24-58.88 52.907 27.733 52.907-27.733-10.24 58.88 42.667 41.387zM325.12 44.8l-26.453 53.333-26.453-53.333-58.88-8.533 42.667-41.387-10.24-58.88 52.907 27.733 52.907-27.733-10.24 58.88 42.667 41.387z" />
<glyph unicode="&#xe955;" glyph-name="w_icons_inbox" data-tags="w_icons_inbox" d="M896 688.213c0 79.36-64.427 143.787-144.213 143.787h-479.573c-79.787 0-144.213-64.427-144.213-144.213v-480c0-79.36 64.427-143.787 144.213-143.787h480c79.36 0 144.213 64.427 144.213 144.213l-0.427 480zM682.667 362.667c0 0 0 0 0 0 0-94.293-76.373-170.667-170.667-170.667s-170.667 76.373-170.667 170.667h-128v336.213c0 26.453 21.333 47.787 47.787 47.787h501.333c26.88 0 48.213-21.333 48.213-47.787v-336.213h-128z" />
<glyph unicode="&#xe956;" glyph-name="w_icons_inbox_out" data-tags="w_icons_inbox_out" d="M849.92 762.88c-4.267 10.24-12.8 18.773-23.040 23.040-5.12 2.133-10.667 3.413-16.213 3.413h-183.467c-23.467 0-42.667-19.2-42.667-42.667s19.2-42.667 42.667-42.667h80.213l-247.467-247.467c-16.64-16.64-16.64-43.52 0-60.16s43.52-16.64 60.16 0l247.467 247.467v-80.64c0-23.467 19.2-42.667 42.667-42.667 11.947 0 22.613 4.693 30.293 12.373s12.8 18.773 12.8 30.293v183.467c0 5.547-1.28 11.093-3.413 16.213zM768 405.333v0-42.667h-128c0-70.827-57.173-128-128-128s-128 57.173-128 128h-128v298.667c0 23.467 19.2 42.667 42.667 42.667h170.667v85.333h-170.667c-70.827 0-128-57.173-128-128v-426.667c0 0 0-0.427 0-0.427 0-9.813 1.28-19.2 3.413-28.16 0.427-2.56 1.707-4.693 2.133-7.253 2.133-6.827 4.267-13.653 7.68-19.627 0.853-2.133 2.133-4.267 3.413-5.973 3.84-6.827 8.107-12.8 12.8-18.773 0.853-1.28 1.707-2.56 2.987-3.413 5.973-6.827 12.8-13.227 20.053-18.773 0 0 0 0 0 0s0 0 0 0c4.267-2.987 8.533-5.547 13.227-8.107 2.133-1.28 4.267-2.133 6.4-3.413 3.84-2.133 8.107-3.84 11.947-5.12s7.253-2.56 11.093-3.413c2.987-0.853 6.4-1.707 9.813-2.56 7.253-2.133 14.933-2.987 23.040-2.987h426.667c70.827 0 128 57.173 128 128v170.667h-85.333z" />
<glyph unicode="&#xe957;" glyph-name="w_icons_inbox_small" data-tags="w_icons_inbox_small" d="M853.333 661.333c0 70.827-57.173 128-128 128h-426.667c-70.827 0-128-57.173-128-128v-426.667c0-70.827 57.173-128 128-128h426.667c70.827 0 128 57.173 128 128v426.667zM640 362.667c0-70.827-57.173-128-128-128s-128 57.173-128 128h-128v298.667c0 23.467 19.2 42.667 42.667 42.667h426.667c23.467 0 42.667-19.2 42.667-42.667v-298.667h-128z" />
<glyph unicode="&#xe958;" glyph-name="w_icons_information" data-tags="w_icons_information" d="M554.667 234.667h-85.333v298.667h85.333v-298.667zM561.92 590.080c-12.373-11.093-29.013-16.64-49.067-16.64-20.48 0-37.547 5.547-50.347 16.64s-19.2 25.173-19.2 41.813c0 17.493 6.4 32 19.2 43.52s29.44 17.067 50.347 17.067c20.907 0 37.12-5.547 49.493-17.067s18.347-25.6 18.347-43.52c0-17.067-6.4-30.72-18.773-41.813z" />
<glyph unicode="&#xe959;" glyph-name="w_icons_information_circle" data-tags="w_icons_information_circle" d="M512 832c-212.053 0-384-171.947-384-384s171.947-384 384-384 384 171.947 384 384c0 212.053-171.947 384-384 384zM554.667 234.667h-85.333v298.667h85.333v-298.667zM561.92 590.080c-12.373-11.093-29.013-16.64-49.067-16.64-20.48 0-37.547 5.547-50.347 16.64s-19.2 25.173-19.2 41.813c0 17.493 6.4 32 19.2 43.52s29.44 17.067 50.347 17.067c20.907 0 37.12-5.547 49.493-17.067s18.347-25.6 18.347-43.52c0-17.067-6.4-30.72-18.773-41.813z" />
<glyph unicode="&#xe95a;" glyph-name="w_icons_insert_one" data-tags="w_icons_insert_one" d="M853.333 661.333c0 42.24-20.907 79.36-52.48 102.827-21.333 15.787-46.933 25.173-75.52 25.173h-426.667c-70.827 0-128-57.173-128-128v-170.667h85.333v170.667c0 23.467 19.2 42.667 42.667 42.667h426.667c23.467 0 42.667-19.2 42.667-42.667v-426.667c0-23.467-19.2-42.667-42.667-42.667h-85.333l-42.667-85.333h128c70.827 0 128 57.173 128 128v426.667zM542.293 307.2l-128.427 128.427c-16.64 16.64-43.093 16.64-59.733 0s-16.64-43.093 0-59.733l56.32-56.32h-197.547c-23.467 0-42.24-18.773-42.24-42.24s18.773-42.24 42.24-42.24h197.12l-55.893-56.32c-16.64-16.64-16.64-43.093 0-59.733 8.107-8.107 18.773-12.373 29.867-12.373 10.667 0 21.76 4.267 29.867 12.373l128.427 128.427c3.84 3.84 6.827 8.533 9.387 13.653 4.267 10.24 4.267 21.76 0 32.427-2.56 5.12-5.547 9.813-9.387 13.653z" />
<glyph unicode="&#xe95b;" glyph-name="w_icons_key" data-tags="w_icons_key" d="M597.333 789.333h-170.667c-46.933 0-85.333-38.4-85.333-85.333v-85.333c0-46.933 38.4-85.333 85.333-85.333h42.667v-213.333h-128v-42.667h42.667v-85.333h-42.667v-42.667h128v-42.667h85.333v426.667h42.667c46.933 0 85.333 38.4 85.333 85.333v85.333c0 46.933-38.4 85.333-85.333 85.333zM554.667 618.667h-85.333c-23.467 0-42.667 19.2-42.667 42.667s19.2 42.667 42.667 42.667h85.333c23.467 0 42.667-19.2 42.667-42.667s-19.2-42.667-42.667-42.667z" />
<glyph unicode="&#xe95c;" glyph-name="w_icons_location_pin" data-tags="w_icons_location_pin" d="M512 832c-165.12 0-256-122.88-256-274.347s256-493.653 256-493.653 256 342.187 256 493.653-90.88 274.347-256 274.347zM512 448c-70.827 0-128 57.173-128 128s57.173 128 128 128 128-57.173 128-128c0-70.827-57.173-128-128-128z" />
<glyph unicode="&#xe95d;" glyph-name="w_icons_location_pin_circle" data-tags="w_icons_location_pin_circle" d="M597.333 533.333c0-47.128-38.205-85.333-85.333-85.333s-85.333 38.205-85.333 85.333c0 47.128 38.205 85.333 85.333 85.333s85.333-38.205 85.333-85.333zM512 832c-212.053 0-384-171.947-384-384s171.947-384 384-384 384 171.947 384 384c0 212.053-171.947 384-384 384zM512 192c0 0-170.667 228.267-170.667 328.96s60.587 183.040 170.667 183.040 170.667-81.92 170.667-183.040-170.667-328.96-170.667-328.96z" />
<glyph unicode="&#xe95e;" glyph-name="w_icons_location_pin_small" data-tags="w_icons_location_pin_small" d="M512 704c-110.080 0-170.667-81.92-170.667-183.040s170.667-328.96 170.667-328.96 170.667 228.267 170.667 328.96-60.587 183.040-170.667 183.040zM512 448c-46.933 0-85.333 38.4-85.333 85.333s38.4 85.333 85.333 85.333 85.333-38.4 85.333-85.333c0-46.933-38.4-85.333-85.333-85.333z" />
<glyph unicode="&#xe95f;" glyph-name="w_icons_locationPinAdd" data-tags="w_icons_locationPinAdd" d="M725.333 234.667v85.333h-85.333v-85.333h-85.333v-85.333h85.333v-85.333h85.333v85.333h85.333v85.333zM597.333 362.667h61.44c37.973 72.96 66.56 144.64 66.56 194.987 0 151.467-90.88 274.347-256 274.347s-256-122.88-256-274.347 256-493.653 256-493.653 17.493 23.040 42.667 59.733v153.6h85.333v85.333zM469.333 448c-70.827 0-128 57.173-128 128s57.173 128 128 128 128-57.173 128-128c0-70.827-57.173-128-128-128z" />
<glyph unicode="&#xe960;" glyph-name="w_icons_lock" data-tags="w_icons_lock" d="M725.333 533.333h-42.667v113.92c0 78.507-92.16 142.080-170.667 142.080s-170.667-63.573-170.667-142.080v-113.92h-42.667c-46.933 0-85.333-38.4-85.333-85.333v-256c0-46.933 38.4-85.333 85.333-85.333h426.667c46.933 0 85.333 38.4 85.333 85.333v256c0 46.933-38.4 85.333-85.333 85.333zM426.667 647.253c0 46.933 38.4 56.747 85.333 56.747s85.333-9.813 85.333-56.747v-113.92h-170.667v113.92z" />
<glyph unicode="&#xe961;" glyph-name="w_icons_lock_open" data-tags="w_icons_lock_open" d="M725.333 533.333h-298.667v113.92c0 46.933 38.4 56.747 85.333 56.747s85.333-9.813 85.333-56.747h85.333c0 78.507-92.16 142.080-170.667 142.080s-170.667-63.573-170.667-142.080v-113.92h-42.667c-46.933 0-85.333-38.4-85.333-85.333v-256c0-46.933 38.4-85.333 85.333-85.333h426.667c46.933 0 85.333 38.4 85.333 85.333v256c0 46.933-38.4 85.333-85.333 85.333z" />
<glyph unicode="&#xe962;" glyph-name="w_icons_medal" data-tags="w_icons_medal" d="M512 874.667c-165.12 0-298.667-133.547-298.667-298.667s133.547-298.667 298.667-298.667 298.667 133.547 298.667 298.667c0 165.12-133.547 298.667-298.667 298.667zM676.693 405.333h-329.387l-54.613 219.307 133.973-48.64 85.333 213.333 85.333-213.333 133.973 48.64-54.613-219.307zM341.333 280.747v-259.413l170.667 85.333 170.667-85.333v259.413c-50.347-29.013-108.373-46.080-170.667-46.080s-120.32 17.067-170.667 46.080z" />
<glyph unicode="&#xe963;" glyph-name="w_icons_menu_hamburger" data-tags="w_icons_menu_hamburger" d="M256 490.667h512v-85.333h-512v85.333zM256 661.333h512v-85.333h-512v85.333zM256 320h512v-85.333h-512v85.333z" />
<glyph unicode="&#xe964;" glyph-name="w_icons_mic" data-tags="w_icons_mic" d="M890.453 669.867c-17.067 87.040-80.64 144.213-163.84 158.293-81.067 14.080-175.36-9.813-232.107-129.707-4.267 1.28-8.96 2.56-13.653 2.56-7.68 0-14.933-1.707-21.333-4.693-0.427 0-0.853 0-1.28 0-11.947-6.4-19.2-14.080-23.040-23.467-3.84-7.253-6.4-14.933-6.4-23.893 0-12.8 5.12-23.893 12.8-32.853l-0.427-0.427 18.773-17.92c-27.733-31.573-55.040-61.867-81.067-92.587-72.533-85.333-144.213-171.52-217.6-256.427-19.2-22.187-36.267-43.093-24.747-75.093 0.853-2.56 0.853-5.547 0.853-8.533-9.387-11.947-15.36-26.88-15.36-43.52 0-38.4 31.147-69.547 69.547-69.547 17.067 0 32.427 6.4 44.373 16.64 2.987 0 6.4 0.853 9.387 0 26.027-7.68 44.8 3.413 62.72 19.2 28.587 24.747 58.027 48.64 86.613 73.813 85.76 75.093 171.52 150.187 256.853 224.853 4.267 3.84 9.387 6.827 14.507 10.24l23.893-23.467c0.853-0.853 1.707-1.707 2.56-2.56l0.427-0.427c8.533-6.4 18.773-10.24 29.867-10.24 28.587 0 52.053 23.467 52.053 52.053 0 7.68-2.133 14.933-5.12 21.76 101.547 60.587 141.227 133.973 120.747 235.947zM482.56 329.387c-48.64 0-87.893 39.253-87.893 87.893s39.253 87.893 87.893 87.893 87.893-39.253 87.893-87.893-39.253-87.893-87.893-87.893z" />
<glyph unicode="&#xe965;" glyph-name="w_icons_news" data-tags="w_icons_news" d="M682.667 789.333h-426.667c-70.827 0-128-57.173-128-128 0 0 0-263.253 0-427.093 0-70.4 57.173-127.573 128-127.573h512c70.827 0 128 57.173 128 128v341.333l-213.333 213.333zM640 704v-170.667h170.667v-298.667c0-23.467-19.2-42.667-42.667-42.667h-512c-23.467 0-42.667 19.2-42.667 42.667v426.667c0 23.467 19.2 42.667 42.667 42.667h384zM682.667 704l128-128h-128v128zM298.667 490.667h426.667v-42.667h-426.667v42.667zM554.667 405.333h170.667v-170.667h-170.667v170.667zM298.667 405.333h213.333v-42.667h-213.333v42.667zM298.667 320h213.333v-42.667h-213.333v42.667zM298.667 661.333h341.333v-85.333h-341.333v85.333z" />
<glyph unicode="&#xe966;" glyph-name="w_icons_next" data-tags="w_icons_next" d="M597.333 448c0-47.128-38.205-85.333-85.333-85.333s-85.333 38.205-85.333 85.333c0 47.128 38.205 85.333 85.333 85.333s85.333-38.205 85.333-85.333zM849.92 431.787c-2.133-5.547-5.12-10.24-8.96-14.080l-129.707-129.707c-8.533-8.107-19.2-12.373-30.293-12.373-10.667 0-21.76 4.267-29.867 12.373-16.64 17.067-16.64 43.947 0 60.587 0 0 46.507 45.227 49.493 49.493l11.947 19.2c4.267 9.387 6.4 19.627 6.4 30.72s-2.133 21.333-6.4 30.72l-11.947 19.2c-2.987 4.267-49.493 49.493-49.493 49.493-16.64 16.64-16.64 43.52 0 60.587 16.64 16.64 43.52 16.64 60.16 0l129.707-129.707c3.84-3.84 6.827-8.96 8.96-14.080 4.693-10.24 4.693-22.187 0-32.427zM341.333 448c0-47.128-38.205-85.333-85.333-85.333s-85.333 38.205-85.333 85.333c0 47.128 38.205 85.333 85.333 85.333s85.333-38.205 85.333-85.333z" />
<glyph unicode="&#xe967;" glyph-name="w_icons_note" data-tags="w_icons_note" d="M632.32 746.667c-17.92 49.493-64.853 85.333-120.32 85.333s-102.4-35.84-120.32-85.333h-263.68v-682.667h512l256 256v426.667h-263.68zM512 789.333c46.933 0 85.333-38.4 85.333-85.333s-38.4-85.333-85.333-85.333-85.333 38.4-85.333 85.333 38.4 85.333 85.333 85.333zM597.333 149.333v213.333h213.333l-213.333-213.333zM554.667 405.333v-256h-341.333v512h178.347c17.92-49.493 64.853-85.333 120.32-85.333s102.4 35.84 120.32 85.333h178.347v-256h-256z" />
<glyph unicode="&#xe968;" glyph-name="w_icons_open_in_new" data-tags="w_icons_open_in_new" d="M520.533 396.373l247.467 247.467v-80.64c0-23.467 19.2-42.667 42.667-42.667 11.947 0 22.613 4.693 30.293 12.373s12.373 18.773 12.373 30.293v183.467c0 5.547-1.28 11.093-3.413 16.213-4.267 10.24-12.8 18.773-23.040 23.040-5.12 2.133-10.667 3.413-16.213 3.413h-183.467c-23.467 0-42.667-19.2-42.667-42.667s19.2-42.667 42.667-42.667h80.213l-247.467-247.467c-16.64-16.64-16.64-43.52 0-60.16s43.947-16.64 60.587 0zM768 234.667c0-23.467-19.2-42.667-42.667-42.667h-426.667c-23.467 0-42.667 19.2-42.667 42.667v426.667c0 23.467 19.2 42.667 42.667 42.667h170.667v85.333h-170.667c-70.827 0-128-57.173-128-128v-426.667c0-42.24 20.907-79.36 52.48-102.827 21.333-15.787 46.933-25.173 75.52-25.173h426.667c70.827 0 128 57.173 128 128v170.667h-85.333v-170.667z" />
<glyph unicode="&#xe969;" glyph-name="w_icons_options" data-tags="w_icons_options" d="M725.333 789.333h-426.667c-70.827 0-128-57.173-128-128v-426.667c0-70.827 57.173-128 128-128h426.667c70.827 0 128 57.173 128 128v426.667c0 70.827-57.173 128-128 128zM512 277.333c-94.293 0-170.667 76.373-170.667 170.667s76.373 170.667 170.667 170.667 170.667-76.373 170.667-170.667c0-94.293-76.373-170.667-170.667-170.667zM597.333 448c0-47.128-38.205-85.333-85.333-85.333s-85.333 38.205-85.333 85.333c0 47.128 38.205 85.333 85.333 85.333s85.333-38.205 85.333-85.333z" />
<glyph unicode="&#xe96a;" glyph-name="w_icons_paper_plane" data-tags="w_icons_paper_plane" d="M132.267 389.12c245.333 147.2 763.733 442.88 763.733 442.88v-684.373c0 0-168.533 41.387-246.613 59.307-34.56-47.787-69.973-96.853-102.4-142.080-24.32-5.12-34.133 5.12-43.093 18.347-35.413 53.76-74.667 105.813-106.24 161.707-20.053 35.84-49.067 45.227-83.627 55.467-46.933 13.653-114.773 36.267-166.827 51.627-11.947 4.267-19.2 10.24-14.933 37.12zM512 149.76l-0.427 133.973 281.6 444.16-392.107-410.453 110.933-167.68z" />
<glyph unicode="&#xe96b;" glyph-name="w_icons_pause" data-tags="w_icons_pause" d="M298.667 704h170.667v-512h-170.667v512zM554.667 704h170.667v-512h-170.667v512z" />
<glyph unicode="&#xe96c;" glyph-name="w_icons_people" data-tags="w_icons_people" d="M460.8 643.84c0-87.893 113.493-157.867 157.867-157.867s157.867 69.973 157.867 157.867c0 5.12 0 10.667 0 16.213 0.427 49.067 0.853 99.413-33.28 133.973-25.173 25.6-65.707 37.973-124.587 37.973s-99.413-12.373-125.013-37.973c-34.133-34.56-33.707-84.907-33.28-133.973 0.427-5.547 0.427-10.667 0.427-16.213zM859.733 335.36c-5.973 25.173-37.547 47.36-64.853 55.893 0 0 0 0 0 0-5.12 1.707-130.133 37.547-175.787 37.547s-170.667-35.84-175.787-37.547c-27.307-8.533-59.307-30.72-64.853-55.467l-24.747-106.24-12.373-50.773c75.947-71.68 172.8-114.773 278.187-114.773 104.533 0 200.96 42.24 276.48 113.067l-36.267 158.293zM378.88 430.933c-14.507 2.56-28.16 4.267-37.12 4.267-34.987 0-131.413-23.893-135.68-25.173-20.907-5.547-45.653-20.48-49.92-37.12l-19.2-70.827-8.96-33.707c43.093-35.413 95.147-59.733 151.893-70.4l10.667 45.653 25.173 106.24c7.68 34.56 33.707 62.293 63.147 81.067zM341.76 473.173c21.76 0 68.267 25.6 91.733 62.293-22.187 31.573-36.693 68.267-36.693 108.373v15.36c0 11.52 0 23.893 0.427 36.267-15.36 5.547-33.28 8.533-55.467 8.533-38.827 0-66.133-8.107-83.2-25.173-22.613-23.040-22.187-56.747-22.187-89.6 0-3.413 0-7.253 0-10.667 0.427-58.453 75.947-105.387 105.387-105.387z" />
<glyph unicode="&#xe96d;" glyph-name="w_icons_people_add" data-tags="w_icons_people_add" d="M247.467 643.84c0-87.893 113.493-157.867 157.867-157.867s157.867 69.973 157.867 157.867c0 5.12 0 10.667 0 16.213 0.427 49.067 0.853 99.413-33.28 133.973-25.173 25.6-65.707 37.973-124.587 37.973s-99.413-12.373-125.013-37.973c-34.133-34.56-33.707-84.907-33.28-133.973 0.427-5.547 0.427-10.667 0.427-16.213zM512 320h128v29.013c-11.947 19.2-36.693 34.987-58.88 41.813-5.547 1.707-130.56 37.547-175.787 37.547-45.653 0-170.667-35.84-175.787-37.547 0 0 0 0 0 0-27.307-8.533-59.307-30.72-64.853-55.893l-36.693-157.867c75.52-70.827 171.52-113.067 276.48-113.067 86.613 0 167.253 29.44 235.52 79.36v5.973h-128v170.667zM768 277.333v128h-85.333v-128h-128v-85.333h128v-128h85.333v128h128v85.333z" />
<glyph unicode="&#xe96e;" glyph-name="w_icons_people_send" data-tags="w_icons_people_send" d="M460.8 643.84c0-87.893 113.493-157.867 157.867-157.867s157.867 69.973 157.867 157.867c0 5.12 0 10.667 0 16.213 0.427 49.067 0.853 99.413-33.28 133.973-25.173 25.6-65.707 37.973-124.587 37.973s-99.413-12.373-125.013-37.973c-34.133-34.56-33.707-84.907-33.28-133.973 0.427-5.547 0.427-10.667 0.427-16.213zM859.733 335.36c-5.973 25.173-37.547 47.36-64.853 55.893 0 0 0 0 0 0-5.12 1.707-130.133 37.547-175.787 37.547-29.013 0-89.6-14.507-131.84-25.6l75.947-75.947c11.947-11.52 21.333-25.6 27.733-41.813 12.8-31.147 12.8-66.56 0-97.707-6.827-16.213-16.213-30.293-28.16-42.24l-62.293-62.293c37.973-12.373 77.653-19.2 119.040-19.2 104.533 0 200.96 42.24 276.48 113.067l-36.267 158.293zM512 218.453c4.267 10.24 4.267 22.187 0 32.427-2.133 5.12-5.12 9.813-9.387 14.080l-129.707 129.707c-16.64 16.64-43.52 16.64-60.16 0s-16.64-43.52 0-60.16l56.747-57.173h-198.827c-23.467 0-42.667-19.2-42.667-42.667s19.2-42.667 42.667-42.667h198.827l-56.747-56.747c-16.64-16.64-16.64-43.52 0-60.16 8.533-8.533 19.2-12.373 30.293-12.373s21.76 4.267 30.293 12.373l129.707 129.707c3.413 3.413 6.827 8.533 8.96 13.653z" />
<glyph unicode="&#xe96f;" glyph-name="w_icons_phone" data-tags="w_icons_phone" d="M725.333 789.333h-426.667c-94.293 0-170.667-76.373-170.667-170.667v-42.667c0-23.467 19.2-42.667 42.667-42.667h128c23.467 0 42.667 19.2 42.667 42.667v42.667c0 46.933 38.4 85.333 85.333 85.333h170.667c46.933 0 85.333-38.4 85.333-85.333v-42.667c0-23.467 19.2-42.667 42.667-42.667h128c23.467 0 42.667 19.2 42.667 42.667v42.667c0 94.293-76.373 170.667-170.667 170.667zM725.333 448v0c-7.253 0-14.080 3.84-18.347 9.813-5.12 6.827-11.52 12.8-18.773 17.493-23.893 16.64-45.653 35.84-61.44 60.587-14.933 23.893-41.387 40.107-72.107 40.107h-85.333c-30.72 0-57.173-16.213-72.533-40.107-15.36-24.747-37.547-43.947-61.44-60.587-6.827-5.12-13.227-11.093-18.773-17.493-3.84-5.973-10.667-9.813-17.92-9.813v0c-94.293 0-170.667-76.373-170.667-170.667v-128c0-23.467 19.2-42.667 42.667-42.667h682.667c23.467 0 42.667 19.2 42.667 42.667v128c0 94.293-76.373 170.667-170.667 170.667zM512 192c-70.827 0-128 57.173-128 128s57.173 128 128 128 128-57.173 128-128-57.173-128-128-128z" />
<glyph unicode="&#xe970;" glyph-name="w_icons_picture" data-tags="w_icons_picture" d="M725.333 789.333h-426.667c-70.827 0-128-57.173-128-128v-426.667c0-70.827 57.173-128 128-128h426.667c7.253 0 14.507 0 21.333 0 58.88 0 106.667 47.787 106.667 106.667 0 6.827 0 14.080 0 21.333v426.667c0 70.827-57.173 128-128 128zM256 277.333v384c0 23.467 19.2 42.667 42.667 42.667h426.667c23.467 0 42.667-19.2 42.667-42.667v-384h-512zM512 405.333l-128 85.333-85.333-170.667h426.667v128l-85.333 170.667z" />
<glyph unicode="&#xe971;" glyph-name="w_icons_picture_add" data-tags="w_icons_picture_add" d="M725.333 789.333h-426.667c-70.827 0-128-57.173-128-128v-426.667c0-70.827 57.173-128 128-128h213.333v170.667h-256v384c0 23.467 19.2 42.667 42.667 42.667h426.667c23.467 0 42.667-19.2 42.667-42.667v-213.333h85.333v213.333c0 70.827-57.173 128-128 128zM768 362.667h-85.333v-85.333h-85.333v-85.333h85.333v-85.333h85.333v85.333h85.333v85.333h-85.333zM597.333 448h128l-85.333 170.667-128-213.333-128 85.333-85.333-170.667h213.333v42.667h85.333z" />
<glyph unicode="&#xe972;" glyph-name="w_icons_play_button" data-tags="w_icons_play_button" d="M640 448l-213.333-170.667v341.333zM212.907 659.2l0.427-424.533v425.387c-0.427-0.427-0.427-0.427-0.427-0.853zM810.667 661.333v-425.387c0.427 0.427 0.427 0.427 0.427 0.853l-0.427 424.533zM768 789.333h-512c-70.827 0-128-57.173-128-128v-426.667c0-70.827 57.173-128 128-128h512c70.827 0 128 57.173 128 128v426.667c0 70.827-57.173 128-128 128zM810.667 235.947v-1.28c0-23.467-19.2-42.667-42.667-42.667h-512c-23.467 0-42.667 19.2-42.667 42.667l-0.427 424.533c0 0.427 0 0.427 0.427 0.853v1.28c0 23.467 19.2 42.667 42.667 42.667h512c23.467 0 42.667-19.2 42.667-42.667l0.427-424.533c0-0.427 0-0.427-0.427-0.853z" />
<glyph unicode="&#xe973;" glyph-name="w_icons_play_button_disabled" data-tags="w_icons_play_button_disabled" d="M536.32 531.2l-1.28-1.28-106.667 84.907v-191.147l-1.707-1.707v196.693zM896 647.68v-413.013c0-70.827-57.173-128-128-128h-413.44l85.76 85.333h327.68c23.467 0 42.667 19.2 42.667 42.667v328.107l85.333 84.907zM213.333 660.053v-425.387l-0.427 424.533c0 0.427 0 0.427 0.427 0.853zM219.307 214.187v0 0 0zM163.413 163.413c0 0 0 0 0 0s0 0 0 0zM837.12 832l-44.8-44.8c-8.107 1.28-16.213 2.133-24.32 2.133h-512c-70.827 0-128-57.173-128-128v-426.667c0-31.147 11.093-59.307 29.867-81.493v-0.427l-29.867-29.867 58.88-58.88 709.12 709.12-58.88 58.88zM536.32 531.2l-1.28-1.28-106.667 84.907v-191.147l-1.707-1.707-207.36-207.787c-2.56 4.693-4.267 9.813-5.12 15.36 0 1.707-0.853 3.413-0.853 5.12l-0.427 424.533c0 0.427 0 0.427 0.427 0.853v1.28c0 23.467 19.2 42.667 42.667 42.667h453.12l-172.8-172.8z" />
<glyph unicode="&#xe974;" glyph-name="w_icons_playButtonAdd" data-tags="w_icons_playButtonAdd" d="M768 789.333h-512c-70.827 0-128-57.173-128-128v-426.667c0-70.827 57.173-128 128-128h426.667v42.667h-85.333v170.667h85.333v85.333h170.667v-85.333h42.667v341.333c0 70.827-57.173 128-128 128zM426.667 277.333v341.333l213.333-170.667-213.333-170.667zM810.667 362.667h-85.333v-85.333h-85.333v-85.333h85.333v-85.333h85.333v85.333h85.333v85.333h-85.333z" />
<glyph unicode="&#xe975;" glyph-name="w_icons_playButtonFilled" data-tags="w_icons_playButtonFilled" d="M768 789.333h-512c-70.827 0-128-57.173-128-128v-426.667c0-70.827 57.173-128 128-128h512c70.827 0 128 57.173 128 128v426.667c0 70.827-57.173 128-128 128zM426.667 277.333v341.333l213.333-170.667-213.333-170.667z" />
<glyph unicode="&#xe976;" glyph-name="w_icons_pointer" data-tags="w_icons_pointer" d="M512 618.667v-85.333l-42.667-85.333v320c0 35.413-28.587 64-64 64s-64-28.587-64-64v-448l-42.667 85.333v77.653c-37.12-11.52-85.333-41.813-85.333-120.32 0-128 128-298.667 128-298.667h341.333c0 0 128 213.333 128 341.333s-85.333 213.333-298.667 213.333z" />
<glyph unicode="&#xe977;" glyph-name="w_icons_qr_code" data-tags="w_icons_qr_code" d="M384 789.333h-128c-46.933 0-85.333-38.4-85.333-85.333v-128c0-46.933 38.4-85.333 85.333-85.333h128c46.933 0 85.333 38.4 85.333 85.333v128c0 47.36-38.4 85.333-85.333 85.333zM384 533.333h-128c-23.467 0-42.667 19.2-42.667 42.667v128c0 23.467 19.2 42.667 42.667 42.667h128c23.467 0 42.667-19.2 42.667-42.667v-128c0-23.467-19.2-42.667-42.667-42.667zM384 405.333h-128c-46.933 0-85.333-38.4-85.333-85.333v-128c0-46.933 38.4-85.333 85.333-85.333h128c46.933 0 85.333 38.4 85.333 85.333v128c0 46.933-38.4 85.333-85.333 85.333zM384 149.333h-128c-23.467 0-42.667 19.2-42.667 42.667v128c0 23.467 19.2 42.667 42.667 42.667h128c23.467 0 42.667-19.2 42.667-42.667v-128c0-23.467-19.2-42.667-42.667-42.667zM640 490.667h128c46.933 0 85.333 38.4 85.333 85.333v128c0 46.933-38.4 85.333-85.333 85.333h-128c-46.933 0-85.333-38.4-85.333-85.333v-128c0-46.933 38.4-85.333 85.333-85.333zM640 746.667h128c23.467 0 42.667-19.2 42.667-42.667v-128c0-11.52-4.267-22.187-12.373-30.293s-18.773-12.373-30.293-12.373h-128c-23.467 0-42.667 19.2-42.667 42.667v128c0 23.467 19.2 42.667 42.667 42.667zM341.333 704h-42.667c-23.467 0-42.667-19.2-42.667-42.667v-42.667c0-23.467 19.2-42.667 42.667-42.667h42.667c23.467 0 42.667 19.2 42.667 42.667v42.667c0 23.467-19.2 42.667-42.667 42.667zM682.667 576h42.667c23.467 0 42.667 19.2 42.667 42.667v42.667c0 23.467-19.2 42.667-42.667 42.667h-42.667c-23.467 0-42.667-19.2-42.667-42.667v-42.667c0-23.467 19.2-42.667 42.667-42.667zM341.333 320h-42.667c-23.467 0-42.667-19.2-42.667-42.667v-42.667c0-23.467 19.2-42.667 42.667-42.667h42.667c23.467 0 42.667 19.2 42.667 42.667v42.667c0 23.467-19.2 42.667-42.667 42.667zM554.667 362.667h42.667v-85.333h-42.667v85.333zM682.667 320v-85.333h42.667v42.667h42.667v42.667zM768 362.667h42.667v-42.667h-42.667v42.667zM640 362.667v-42.667h42.667v42.667h85.333v85.333h-85.333v-42.667h-85.333v-42.667zM725.333 192h42.667v-85.333h42.667v42.667h42.667v42.667h-42.667v42.667h-85.333zM682.667 149.333h-42.667v-42.667h85.333v85.333h-42.667zM597.333 405.333v42.667h-85.333v-85.333h42.667v42.667zM810.667 448h42.667v-85.333h-42.667v85.333zM810.667 320h42.667v-85.333h-42.667v85.333zM640 234.667v42.667h-42.667v-42.667h-85.333v-42.667h42.667v-85.333h42.667v85.333h85.333v42.667z" />
<glyph unicode="&#xe978;" glyph-name="w_icons_Question_Circle" data-tags="w_icons_Question_Circle" d="M512 832c-212.053 0-384-171.947-384-384s171.947-384 384-384 384 171.947 384 384c0 212.053-171.947 384-384 384zM517.12 157.44h-104.96v101.973h105.387v-101.973zM649.813 465.067c-34.987-28.587-82.347-43.093-142.080-44.373v-89.173h-87.893v150.613h38.827c46.933 0 84.053 7.68 110.933 23.040s40.533 43.947 40.533 85.333c0 28.16-8.107 49.92-24.32 66.133s-37.973 23.893-65.707 23.893c-29.013 0-52.907-8.533-70.4-25.173-17.92-16.64-26.88-38.827-26.88-65.707h-87.893c-0.427 33.28 6.827 61.867 21.76 87.040 15.36 25.173 37.12 44.8 65.707 59.307s62.293 21.333 101.547 21.333c54.187 0 97.28-14.507 129.707-43.947 32.427-29.013 48.64-69.547 48.64-121.6 0-55.893-17.493-98.133-52.48-126.72z" />
<glyph unicode="&#xe979;" glyph-name="w_icons_ranking" data-tags="w_icons_ranking" d="M640 234.667v170.667h-256v-85.333h-256v-256h768v170.667zM640 533.333l42.667 170.667-85.333-42.667-85.333 170.667-85.333-170.667-85.333 42.667 42.667-170.667z" />
<glyph unicode="&#xe97a;" glyph-name="w_icons_refresh" data-tags="w_icons_refresh" d="M512 789.333c-94.293 0-179.627-38.4-241.067-100.267s-100.267-146.773-100.267-241.067c0-153.173 101.547-283.307 241.067-326.4 17.92-8.533 49.92-14.933 100.267-14.933 41.813 0 81.493 7.68 118.187 21.76l-50.773 72.96c-21.333-5.973-43.947-9.387-67.413-9.387-141.227 0-256 114.773-256 256 0 70.4 28.587 134.4 75.093 180.907s110.507 75.093 180.907 75.093c14.507 0 29.013-1.707 43.093-3.84 1.707-0.427 3.413-0.427 5.12-0.853 13.227-2.56 26.027-6.4 38.4-10.667 2.133-0.853 4.267-1.707 6.4-2.133 11.947-4.693 23.893-10.24 34.987-16.64 1.707-1.28 3.84-2.133 5.547-3.413 11.093-6.827 21.76-14.507 31.573-22.613 1.28-0.853 2.133-2.133 3.413-2.987 10.24-8.96 19.627-18.347 28.16-28.587 0.427-0.427 0.427-0.427 0.853-0.853 8.533-10.24 16.213-21.333 23.040-33.28 0.853-1.707 2.133-2.987 2.987-4.693 6.4-11.093 11.52-23.040 16.213-35.413 0.853-2.133 1.707-4.267 2.56-6.827 4.267-12.373 7.68-24.747 9.813-37.973 0-0.853 0.427-1.707 0.427-2.987h-141.653l230.4-230.4v188.16c0 188.16-153.173 341.333-341.333 341.333z" />
<glyph unicode="&#xe97b;" glyph-name="w_icons_remove" data-tags="w_icons_remove" d="M682.667 405.333h-341.333v85.333h341.333v-85.333z" />
<glyph unicode="&#xe97c;" glyph-name="w_icons_remove_circle" data-tags="w_icons_remove_circle" d="M512 832c-212.053 0-384-171.947-384-384s171.947-384 384-384 384 171.947 384 384-171.947 384-384 384zM682.667 405.333h-341.333v85.333h341.333v-85.333z" />
<glyph unicode="&#xe97d;" glyph-name="w_icons_retract" data-tags="w_icons_retract" d="M256 320h128v-128h85.333v213.333h-213.333zM640 576v128h-85.333v-213.333h213.333v85.333zM469.333 704h-85.333v-128h-128v-85.333h213.333zM554.667 192h85.333v128h128v85.333h-213.333z" />
<glyph unicode="&#xe97e;" glyph-name="w_icons_rewind" data-tags="w_icons_rewind" d="M512 789.333c94.293 0 179.627-38.4 241.067-100.267s100.267-146.773 100.267-241.067c0-153.173-101.547-283.307-241.067-326.4-17.92-8.533-49.92-14.933-100.267-14.933-41.813 0-81.493 7.68-118.187 21.76l50.773 72.96c21.333-5.973 43.947-9.387 67.413-9.387 141.227 0 256 114.773 256 256 0 70.4-28.587 134.4-75.093 180.907s-110.507 75.093-180.907 75.093c-14.507 0-29.013-1.707-43.093-3.84-1.707-0.427-3.413-0.427-5.12-0.853-13.227-2.56-26.027-6.4-38.4-10.667-2.133-0.853-4.267-1.707-6.4-2.133-11.947-4.693-23.467-10.667-34.56-17.067-1.707-0.853-3.84-2.133-5.547-3.413-11.093-6.827-21.76-14.080-31.573-22.613-1.28-0.853-2.56-2.133-3.413-2.987-10.24-8.96-19.627-18.347-28.16-28.587-0.427-0.427-0.853-0.427-0.853-0.853-8.533-10.24-16.213-21.333-23.040-32.853-0.853-1.707-2.133-3.413-2.987-5.12-6.4-11.093-11.52-22.613-16.213-34.987-0.853-2.133-1.707-4.267-2.56-6.827-4.267-12.373-7.68-24.747-9.813-37.973 0-0.853-0.427-1.707-0.427-2.987h141.653l-230.827-230.4v188.16c0 188.16 153.173 341.333 341.333 341.333z" />
<glyph unicode="&#xe97f;" glyph-name="w_icons_save" data-tags="w_icons_save" d="M640 789.333h-341.333c-70.827 0-128-57.173-128-128v-426.667c0-70.827 57.173-128 128-128h426.667c70.827 0 128 57.173 128 128v341.333l-213.333 213.333zM256 704h256v-128h85.333v128h42.667v-170.667h-384v170.667zM768 192h-512v256h512v-256z" />
<glyph unicode="&#xe980;" glyph-name="w_icons_scan" data-tags="w_icons_scan" d="M256 490.667h512v-85.333h-512v85.333zM341.333 700.16v89.173c-109.227-18.347-194.987-104.107-213.333-213.333h89.173c15.787 60.587 63.573 108.373 124.16 124.16zM806.827 576h89.173c-18.347 109.227-104.107 194.987-213.333 213.333v-89.173c60.587-15.787 108.373-63.573 124.16-124.16zM682.667 195.84v-89.173c109.227 18.347 194.987 104.107 213.333 213.333h-89.173c-15.787-60.587-63.573-108.373-124.16-124.16zM217.173 320h-89.173c18.347-109.227 104.107-194.987 213.333-213.333v89.173c-60.587 15.787-108.373 63.573-124.16 124.16z" />
<glyph unicode="&#xe981;" glyph-name="w_icons_search_small" data-tags="w_icons_search_small" d="M840.96 179.627l-168.96 168.96c33.707 45.653 53.76 102.4 53.76 163.413-0.427 153.173-124.587 277.333-277.76 277.333s-277.333-124.16-277.333-277.333 124.16-277.333 277.333-277.333c61.013 0 117.333 20.053 163.413 53.76l168.96-168.96 60.587 60.16zM448 320c-105.813 0-192 86.187-192 192s86.187 192 192 192 192-86.187 192-192-86.187-192-192-192z" />
<glyph unicode="&#xe982;" glyph-name="w_icons_selection" data-tags="w_icons_selection" d="M512 64c-211.627 0-384 172.373-384 384s172.373 384 384 384c26.453 0 47.787-21.333 47.787-47.787s-21.333-48.213-47.787-48.213c-158.72 0-288-129.28-288-288s129.28-288 288-288 288 129.28 288 288c0 26.453 21.333 47.787 47.787 47.787s48.213-21.333 48.213-47.787c0-211.627-172.373-384-384-384zM798.72 710.4c-17.067 14.080-41.813 11.52-55.467-5.547l-247.040-299.52-87.893 102.827c-14.080 16.64-39.253 18.347-55.893 4.267s-18.347-39.253-4.267-55.893l118.613-138.24c0.853-0.853 1.707-1.28 2.56-1.707 0.853-0.853 1.28-2.133 2.56-2.987 1.707-1.707 4.267-2.133 5.973-3.413 1.28-0.853 2.56-1.707 4.267-2.56 4.693-2.133 9.813-2.987 14.933-2.987 0 0 0 0 0 0s0 0 0 0c5.12 0 10.24 1.28 14.933 3.413 1.707 0.853 2.987 1.707 4.267 2.56 2.133 1.28 4.267 2.133 6.4 3.84 0.853 0.853 1.28 2.133 2.133 2.987s1.707 1.28 2.56 2.133l276.907 336.213c14.080 16.213 11.52 40.96-5.547 54.613z" />
<glyph unicode="&#xe983;" glyph-name="w_icons_selection_cancel" data-tags="w_icons_selection_cancel" d="M814.080 817.92l-361.387-361.387-44.373 51.627c-14.080 16.64-39.253 18.347-55.893 4.267s-18.347-39.253-4.267-55.893l48.213-56.32-118.613-118.613c-33.707 46.933-53.76 104.533-53.76 166.4 0 158.72 129.28 288 288 288 26.453 0 47.787 21.333 47.787 47.787s-21.333 48.213-47.787 48.213c-211.627 0-384-172.373-384-384 0-88.747 30.72-169.813 81.493-234.667l-67.413-67.413 67.84-67.84 672 672-67.84 67.84zM848.213 495.787c-26.453 0-47.787-21.333-47.787-47.787 0-158.72-129.28-288-288-288-36.693 0-72.107 7.253-104.107 19.627l-72.533-72.533c52.48-27.307 112.64-43.093 176.213-43.093 211.627 0 384 172.373 384 384 0 26.453-21.333 47.787-47.787 47.787z" />
<glyph unicode="&#xe984;" glyph-name="w_icons_settings_small" data-tags="w_icons_settings_small" d="M765.44 414.72c1.707 10.667 2.56 22.187 2.56 33.28s-0.853 22.613-2.56 33.707l72.107 56.747c6.4 5.547 8.107 14.507 3.84 21.76l-68.267 118.187c-3.413 5.547-8.96 8.533-14.933 8.533-2.133 0-4.267-0.427-5.973-1.28l-84.907-34.133c-17.493 13.653-36.693 24.747-57.6 33.707l-12.373 90.027c-1.28 7.68-8.96 14.080-17.067 14.080h-136.533c-8.107 0-15.787-6.4-17.067-14.507l-12.8-90.453c-20.48-8.533-39.68-20.053-57.6-33.707l-84.907 34.133c-2.133 0.853-4.267 1.28-5.973 1.28-5.973 0-11.52-2.987-14.933-8.533l-68.267-118.187c-4.267-6.827-2.133-16.213 4.267-21.76l72.107-56.747c-1.707-10.24-2.56-21.76-2.56-32.853s0.853-22.613 2.56-33.707l-72.107-56.747c-6.4-5.547-8.107-14.507-3.84-21.76l68.267-118.187c3.413-5.547 8.96-8.533 14.933-8.533 2.133 0 4.267 0.427 5.973 1.28l84.907 34.133c17.493-13.653 36.693-24.747 57.6-33.707l12.8-90.027c1.28-7.68 8.96-14.080 17.067-14.080h136.533c8.107 0 15.787 6.4 17.067 14.507l12.8 90.027c20.48 8.96 40.107 20.053 57.6 33.707l84.907-34.133c2.133-0.853 4.267-1.28 5.973-1.28 5.973 0 11.52 2.987 14.933 8.533l68.267 118.187c4.267 7.253 2.56 16.64-3.84 21.76l-72.96 56.747zM512 320c-70.4 0-128 57.6-128 128s57.6 128 128 128 128-57.6 128-128c0-70.4-57.6-128-128-128z" />
<glyph unicode="&#xe985;" glyph-name="w_icons_share" data-tags="w_icons_share" d="M725.333 533.333c70.827 0 128 57.173 128 128s-57.173 128-128 128-128-57.173-128-128c0-5.12 0.853-10.24 1.707-15.36l-211.627-105.813c-23.040 22.187-54.187 35.84-88.747 35.84-70.827 0-128-57.173-128-128s57.173-128 128-128c30.293 0 57.173 10.667 79.36 28.16l137.387-85.76c-2.133-8.96-3.413-18.347-3.413-27.733 0-70.827 57.173-128 128-128s128 57.173 128 128-57.173 128-128 128c-30.293 0-57.173-10.667-79.36-28.16l-137.387 85.76c2.133 8.96 3.413 18.347 3.413 27.733 0 5.12-0.853 10.24-1.707 15.36l211.627 105.813c23.040-22.187 54.187-35.84 88.747-35.84z" />
<glyph unicode="&#xe986;" glyph-name="w_icons_slider" data-tags="w_icons_slider" d="M810.667 704h-597.333c-46.933 0-85.333-38.4-85.333-85.333v-341.333c0-46.933 38.4-85.333 85.333-85.333h597.333c46.933 0 85.333 38.4 85.333 85.333v341.333c0 46.933-38.4 85.333-85.333 85.333zM213.333 277.333h-42.667v341.333h42.667v-341.333zM853.333 277.333h-42.667v341.333h42.667v-341.333z" />
<glyph unicode="&#xe987;" glyph-name="w_icons_slider_cancel" data-tags="w_icons_slider_cancel" d="M883.627 759.040l-60.16 60.16-115.627-115.2h-494.507c-46.933 0-85.333-38.4-85.333-85.333v-341.333c0-41.813 29.867-76.373 69.12-83.627l-56.747-56.747 60.16-60.16 683.093 682.24zM170.667 618.667h42.667v-341.333h-42.667v341.333zM893.013 640.427l-39.68-39.253v-323.84h-42.667v281.173l-366.507-366.507h366.507c46.933 0 85.333 38.4 85.333 85.333v341.333c0 7.68-1.28 14.933-2.987 21.76z" />
<glyph unicode="&#xe988;" glyph-name="w_icons_slider_checked" data-tags="w_icons_slider_checked" d="M810.667 704h-597.333c-46.933 0-85.333-38.4-85.333-85.333v-341.333c0-46.933 38.4-85.333 85.333-85.333h597.333c46.933 0 85.333 38.4 85.333 85.333v341.333c0 46.933-38.4 85.333-85.333 85.333zM213.333 277.333h-42.667v341.333h42.667v-341.333zM717.227 578.133c0 0-261.12-311.467-262.827-312.32 0 0 0 0 0 0-2.987-3.84-7.68-6.827-13.227-6.827s-9.813 2.56-13.227 6.4c0 0-0.427 0-0.427 0-1.28 0.427-120.32 133.973-120.32 133.973-12.8 14.933-11.093 37.12 3.84 49.92s37.547 11.093 49.92-3.84l78.933-92.16 221.867 269.653c12.373 14.933 34.987 17.493 49.92 4.693 15.787-11.52 17.92-34.133 5.547-49.493zM853.333 277.333h-42.667v341.333h42.667v-341.333z" />
<glyph unicode="&#xe989;" glyph-name="w_icons_slider_question" data-tags="w_icons_slider_question" d="M810.667 704h-597.333c-46.933 0-85.333-38.4-85.333-85.333v-341.333c0-46.933 38.4-85.333 85.333-85.333h597.333c46.933 0 85.333 38.4 85.333 85.333v341.333c0 46.933-38.4 85.333-85.333 85.333zM213.333 277.333h-42.667v341.333h42.667v-341.333zM546.987 277.333h-87.040v84.053h87.040v-84.053zM613.547 454.827c-17.92-15.787-40.96-23.893-69.973-24.32v-35.413h-81.067v90.027h33.28c19.2 0 34.133 2.56 44.373 7.253 10.24 5.12 15.36 13.653 15.36 25.6 0 7.68-2.133 13.653-6.4 17.92s-9.813 6.4-16.213 6.4c-7.68 0-14.080-2.56-18.347-7.253-4.267-5.12-6.4-11.52-6.4-19.2h-81.493c-0.427 17.92 2.987 34.133 11.093 48.64s20.48 26.027 37.12 34.56c16.64 8.533 37.12 12.8 61.013 12.8 31.573 0 56.747-8.107 75.52-23.893 19.2-15.787 28.587-38.827 28.587-69.12 0-26.88-8.96-48.213-26.453-64zM853.333 277.333h-42.667v341.333h42.667v-341.333z" />
<glyph unicode="&#xe98a;" glyph-name="w_icons_slider_suspensive" data-tags="w_icons_slider_suspensive" d="M810.667 704h-597.333c-46.933 0-85.333-38.4-85.333-85.333v-341.333c0-46.933 38.4-85.333 85.333-85.333h597.333c46.933 0 85.333 38.4 85.333 85.333v341.333c0 46.933-38.4 85.333-85.333 85.333zM213.333 277.333h-42.667v341.333h42.667v-341.333zM341.333 405.333c-23.467 0-42.667 19.2-42.667 42.667s19.2 42.667 42.667 42.667 42.667-19.2 42.667-42.667c0-23.467-19.2-42.667-42.667-42.667zM512 405.333c-23.467 0-42.667 19.2-42.667 42.667s19.2 42.667 42.667 42.667 42.667-19.2 42.667-42.667c0-23.467-19.2-42.667-42.667-42.667zM682.667 405.333c-23.467 0-42.667 19.2-42.667 42.667s19.2 42.667 42.667 42.667 42.667-19.2 42.667-42.667c0-23.467-19.2-42.667-42.667-42.667zM853.333 277.333h-42.667v341.333h42.667v-341.333z" />
<glyph unicode="&#xe98b;" glyph-name="w_icons_slider_warning" data-tags="w_icons_slider_warning" d="M810.667 704h-597.333c-46.933 0-85.333-38.4-85.333-85.333v-341.333c0-46.933 38.4-85.333 85.333-85.333h597.333c46.933 0 85.333 38.4 85.333 85.333v341.333c0 46.933-38.4 85.333-85.333 85.333zM213.333 277.333h-42.667v341.333h42.667v-341.333zM298.667 277.333l213.333 373.333 213.333-373.333h-426.667zM853.333 277.333h-42.667v341.333h42.667v-341.333zM469.333 533.333h85.333v-128h-85.333v128zM469.333 362.667h85.333v-42.667h-85.333v42.667z" />
<glyph unicode="&#xe98c;" glyph-name="w_icons_social_artstation" data-tags="w_icons_social_artstation" d="M431.36 785.92c3.413 0.427 5.12 0.853 6.4 0.853 42.24 0 84.48 0.427 126.293 0 29.44-0.427 51.627-14.507 66.133-39.68 27.307-47.36 54.613-95.147 81.92-142.933 57.173-100.267 114.347-200.533 171.947-300.373 14.933-26.027 14.933-52.053 0.853-78.080-20.48-36.693-41.813-72.96-63.147-109.653-0.427-0.853-1.28-1.707-2.987-4.267-128.853 224.427-257.707 448.427-387.413 674.133zM128 263.253c4.693 0 7.68 0 10.667 0 151.467 0 303.36 0 454.827 0 7.253 0 11.52-2.133 14.933-8.533 26.027-45.653 52.053-90.88 78.507-136.533 1.28-2.56 2.56-4.693 4.693-8.96-4.267 0-7.253 0-9.813 0-138.24 0-276.48 0.427-414.72 0-34.56 0-58.88 14.080-75.947 43.947-18.773 33.707-38.827 66.987-58.027 100.693-1.28 2.56-2.987 5.12-5.12 9.387zM365.227 675.84c58.027-100.693 115.2-199.68 173.227-299.947-115.627 0-229.973 0-346.453 0 57.6 99.84 114.773 199.253 173.227 299.947z" />
<glyph unicode="&#xe98d;" glyph-name="w_icons_social_deviantart" data-tags="w_icons_social_deviantart" d="M810.667 832h-597.333c-46.933 0-85.333-38.4-85.333-85.333v-597.333c0-46.933 38.4-85.333 85.333-85.333h597.333c46.933 0 85.333 38.4 85.333 85.333v597.333c0 46.933-38.4 85.333-85.333 85.333zM569.6 379.307c55.040 0 109.653 0 164.693 0 8.533 0 8.533 0 8.533-8.533 0-45.653 0-90.88 0-136.533 0-8.107 0-8.107-8.107-8.107-84.907 0-169.387 0-254.293 0-5.973 0-8.96-2.133-11.947-7.253-17.067-29.867-34.133-59.733-51.2-89.6-2.133-3.84-4.693-5.12-9.387-5.12-39.68 0-79.36 0-119.040 0-5.547 0-7.253 1.707-7.253 7.253 0.427 21.333 0 43.093 0.427 64.427 0 2.987 0.853 6.4 2.56 9.387 37.12 64.427 73.813 128.427 110.933 192.427 21.333 36.693 42.667 73.387 63.573 110.080 1.28 2.133 2.56 4.693 4.693 8.533-3.84 0-5.973 0-8.533 0-55.467 0-110.507 0-165.973 0-8.107 0-8.107 0-8.107 8.107 0 45.653 0 91.307 0 136.96 0 6.4 1.707 8.107 8.107 8.107 84.907 0 169.387 0 254.293-0.427 6.4 0 9.813 1.707 13.227 7.253 16.64 29.867 34.133 59.307 51.2 88.747 2.56 4.267 5.12 5.547 9.813 5.547 39.68 0 78.933 0 118.613 0 5.973 0 7.68-2.133 7.68-7.68-0.427-20.907 0-42.24-0.427-63.147 0-3.413-0.853-7.253-2.56-10.24-30.72-53.76-61.867-107.52-93.013-161.28-26.88-46.507-53.76-93.013-80.64-139.947-1.707-2.56-2.987-5.547-5.12-9.387 2.133 0.427 4.693 0.427 7.253 0.427z" />
<glyph unicode="&#xe98e;" glyph-name="w_icons_social_discord" data-tags="w_icons_social_discord" d="M785.067 293.973c-81.067-63.573-173.227-87.893-272.64-87.893s-191.147 23.893-271.36 86.187c-0.427-0.853-0.853-1.28-1.28-2.133 6.827-6.827 13.227-14.507 20.053-20.907 33.707-32.853 72.533-58.453 116.907-75.52 5.12-2.133 5.547-4.267 2.56-8.533-6.827-9.813-14.080-19.627-20.907-29.867-2.987-4.693-7.253-5.12-11.947-4.693-26.88 1.707-52.907 7.68-78.507 16.213-52.48 17.493-97.707 46.080-134.4 87.893-3.84 4.267-5.973 8.96-5.547 14.933 3.413 49.92 8.96 98.987 17.92 148.053 12.373 67.413 30.72 132.693 57.6 195.84 6.4 15.36 14.507 29.867 21.333 45.227 5.547 12.373 16.213 19.627 26.453 26.453 44.373 30.293 92.587 51.2 145.92 59.307 8.96 1.28 16.64-4.693 16.213-13.653 0-1.707-3.84-4.267-6.4-5.12-14.507-5.547-29.867-9.813-44.373-15.787-38.827-14.933-72.107-38.4-102.827-66.56-0.427-0.853-1.28-1.28-1.707-2.133-0.427-0.427 0-0.853-0.427-2.56 169.813 94.293 339.627 94.293 509.867 0.853-1.707 1.707-3.413 3.84-5.12 5.547-40.96 38.827-89.173 64.853-143.787 79.787-3.413 0.853-9.387 0-8.107 6.827 1.707 8.96 6.827 14.933 12.8 13.653 22.187-5.12 45.227-9.387 66.56-16.64 34.56-11.52 65.707-29.867 95.147-52.053 11.52-8.533 16.213-21.333 22.187-33.28 37.973-78.080 61.44-161.28 74.24-247.040 6.4-41.813 9.387-84.053 14.507-125.867 0.853-5.973-1.28-10.667-5.12-14.933-38.827-43.947-86.613-73.813-142.933-90.027-20.907-5.973-43.093-8.96-64.427-13.227-9.387-2.133-16.64 0.427-21.76 9.813-4.267 8.107-10.24 15.36-15.787 22.613-5.12 7.253-4.693 7.68 2.987 10.667 51.2 20.48 95.147 51.627 131.84 92.16 1.28 1.28 2.133 2.56 3.413 3.84 0-0.427 0 0 0.853 2.56zM686.507 407.040c0 20.48-2.133 31.147-10.667 45.653-19.627 34.56-60.16 44.373-90.027 14.507-27.307-27.733-29.013-77.227-2.987-109.653 20.907-26.027 57.6-28.16 81.067-4.267 16.213 16.213 22.613 35.84 22.613 53.76zM459.947 408.747c-0.427 19.2-4.693 34.56-13.227 48.64-20.053 32-58.88 37.12-85.76 11.52-30.293-29.013-30.72-86.187-0.427-115.627 22.613-22.187 54.613-21.76 77.227 0.427 15.36 15.787 21.333 35.84 22.187 55.040z" />
<glyph unicode="&#xe98f;" glyph-name="w_icons_social_facebook" data-tags="w_icons_social_facebook" d="M512 831.573c-212.053 0-384-171.947-384-384 0-191.573 140.373-350.72 324.267-379.307v268.373h-98.987v112.64h98.987c0 49.92 0 99.413 0 116.053 0 67.413 58.453 110.080 125.44 114.773 28.587 2.133 69.547-1.707 99.84-5.12v-96c-13.227 0.427-36.267 0.853-49.067 0.427-33.28-1.28-53.333-18.347-53.333-51.627 0-9.387 0-42.667 0-78.507h102.4l-13.653-112.64h-88.747v-267.947c182.187 30.293 320.853 188.16 320.853 378.88 0 212.053-171.947 384-384 384z" />
<glyph unicode="&#xe990;" glyph-name="w_icons_social_instagram" data-tags="w_icons_social_instagram" d="M683.52 832h-343.040c-117.333 0-212.48-95.147-212.48-212.48v-343.040c0-117.333 95.147-212.48 212.48-212.48h343.040c117.333 0 212.48 95.147 212.48 212.48v343.040c0 117.333-95.147 212.48-212.48 212.48zM823.467 276.48c0-77.227-62.72-139.947-139.947-139.947h-343.040c-77.227 0-139.947 62.72-139.947 139.947v343.040c0 77.227 62.72 139.947 139.947 139.947h343.040c77.227 0 139.947-62.72 139.947-139.947v-343.040zM510.293 646.4c-112.213-0.427-195.413-87.893-197.547-197.547 0-109.653 90.027-200.96 199.68-199.68s196.693 83.627 197.12 197.973c0.427 113.493-86.613 199.68-199.253 199.253zM506.453 320.853c-64 1.707-126.293 61.867-121.6 128-3.84 63.147 57.6 128.853 129.707 126.72 68.693-2.56 123.733-58.027 123.733-129.707 0-68.693-61.44-127.147-131.84-125.013zM715.947 699.733c-26.453 0-45.653-19.627-45.653-46.933 0-28.16 17.493-46.080 44.8-46.080 28.16 0 46.507 17.067 46.933 44.8s-19.627 48.213-46.080 48.213z" />
<glyph unicode="&#xe991;" glyph-name="w_icons_social_linkedin" data-tags="w_icons_social_linkedin" d="M768 832h-512c-70.827 0-128-57.173-128-128v-512c0-70.827 57.173-128 128-128h512c70.827 0 128 57.173 128 128v512c0 70.827-57.173 128-128 128zM392.96 265.813c0-6.4-1.707-8.107-8.533-8.107-24.747 0.427-49.92 0.427-74.667 0-4.693 0-6.4 1.28-6.4 6.4v275.627c0 4.693 1.28 5.973 5.973 5.973h76.373c5.973 0.427 7.253-1.707 7.253-6.827-0.427-45.653-0.427-91.307-0.427-136.533 0-45.653 0-90.88 0.427-136.533zM347.733 585.387c-28.587 0-51.627 23.040-51.627 52.053 0 28.16 23.467 51.627 52.053 51.627s51.627-23.467 51.627-52.053c0-29.013-23.467-52.053-52.053-51.627zM727.893 264.96c0-5.547-0.853-7.253-6.827-7.253-25.173 0.427-50.347 0.427-75.52 0-6.4 0-7.253 2.133-7.253 7.68 0 50.773 0 101.973-0.427 152.747 0 11.52-2.133 23.040-6.827 33.707-5.12 11.093-13.653 18.773-25.6 20.907-30.72 5.547-58.027-3.413-64.853-42.667-2.133-11.52-2.133-23.040-2.133-34.987 0-42.667-0.427-85.333 0-128 0-8.107-2.133-9.387-9.387-9.387-24.747 0.427-49.067 0.427-73.387 0-5.547 0-6.827 1.28-6.827 6.827v274.773c0 4.693 0.853 6.827 5.973 6.4h74.24c4.267 0 5.547-0.853 5.547-5.12v-32.853c15.787 23.040 36.693 37.547 63.147 42.667 24.747 5.12 49.493 3.413 72.96-5.973 29.44-11.52 43.947-35.413 51.2-64.853 4.267-17.493 5.973-35.413 5.973-53.333v-161.28z" />
<glyph unicode="&#xe992;" glyph-name="w_icons_social_pinterest" data-tags="w_icons_social_pinterest" d="M469.333 271.36c37.973-45.227 85.76-49.493 137.387-35.413 57.173 15.787 96 54.187 121.6 105.813 28.587 58.027 37.973 119.893 20.907 182.613-22.187 81.493-77.227 132.693-157.013 154.453-80.213 22.187-157.867 12.8-227.84-33.28-56.32-37.12-87.040-91.733-95.573-158.293-6.827-55.040 5.547-104.96 39.68-149.333 9.387-12.373 21.333-22.187 35.84-29.013 8.533-4.267 11.52-2.56 13.653 6.827 3.413 13.227 6.827 26.027 9.387 39.253 0.853 4.267 0 9.813-2.133 13.227-32.427 47.36-36.693 98.133-15.787 150.187 23.893 59.733 70.4 93.013 133.547 101.973 39.68 5.547 78.507 0.853 113.493-19.627 43.52-25.173 66.987-64 72.533-113.493 4.693-46.507-2.133-91.307-24.32-132.693-16.213-30.293-39.253-52.907-73.813-61.44-23.040-5.547-45.227-3.413-63.573 14.080-15.36 14.933-19.627 33.28-14.080 53.76 8.107 29.44 17.067 58.453 25.173 87.893 4.267 15.787 7.68 32 5.547 48.64-5.547 42.667-42.24 51.2-69.12 40.107-23.893-10.24-36.267-30.293-43.52-54.187-8.107-28.587-5.547-57.173 4.267-85.333 1.28-3.84 1.707-8.96 0.853-12.8-14.080-61.44-29.013-122.88-43.093-184.32-6.827-29.867-5.547-60.16-3.413-90.027 0.427-5.973 0.853-12.373 1.28-18.773-160.427 58.453-287.573 247.467-229.12 459.52 58.453 211.2 281.173 331.52 492.373 260.267 210.773-70.827 317.013-304.64 231.68-509.867-86.613-207.787-307.627-273.067-467.2-219.733 7.253 13.227 14.507 26.453 22.187 39.68 18.773 33.28 27.733 69.973 36.693 106.24 3.84 14.507 7.68 28.587 11.52 43.093z" />
</font>
</defs>
</svg>
